<?xml version="1.0" standalone="no"?>
<!DOCTYPE svg PUBLIC "-//W3C//DTD SVG 1.1//EN" "http://www.w3.org/Graphics/SVG/1.1/DTD/svg11.dtd" >
<svg xmlns="http://www.w3.org/2000/svg" xmlns:xlink="http://www.w3.org/1999/xlink" version="1.1">
<metadata>
Created by FontForge 20170731 at Tue Nov 21 17:13:20 2017
 By Aleksey,,,
Copyright (c) 2013 by Gumundur U'lfarsson &#38; Or Type. All rights reserved.
</metadata>
<defs>
<font id="L10-Regular" horiz-adv-x="584" >
  <font-face 
    font-family="L10"
    font-weight="400"
    font-stretch="normal"
    units-per-em="1000"
    panose-1="0 0 5 0 0 0 0 0 0 0"
    ascent="800"
    descent="-200"
    x-height="503"
    cap-height="700"
    bbox="-43 -251 1118 917"
    underline-thickness="50"
    underline-position="-200"
    unicode-range="U+0020-FB04"
  />
<missing-glyph horiz-adv-x="491" 
d="M402 759v-981h-311v981h311zM327 693h-162v-32h64v-36h-65v-33h163v33h-65v36h65v32zM262 567h-98v-102h163v33h-65v69zM229 533v-35h-33v35h33zM327 438h-163v-32h65v-36h-65v-33h98v69h65v32zM327 379h-33v-64h-130v-34h163v98zM327 260h-98v-55h33v22h32v-46h-98v79
h-32v-111h163v111zM327 90h-163v-111h163v111zM294 58v-47h-98v47h98zM327 -43h-163v-33h68l-68 -46v-32h163v32h-100l68 46h32v33z" />
    <glyph glyph-name="f_f" unicode="ff" horiz-adv-x="586" 
d="M529 673q-59 0 -59 -79v-91h109v-87h-109v-416h-95v416h-65v-1h-116v-415h-95v415h-68v88h68v93q0 77 38 120t97 43h57v-88h-38q-59 0 -59 -79v-89h181v93q0 77 38 120t97 43h77v-86h-58z" />
    <glyph glyph-name="fi" unicode="fi" horiz-adv-x="557" 
d="M470 503v-503h-95v415h-181v-415h-95v415h-68v88h68v93q0 77 38 120t97 43h57v-88h-38q-59 0 -59 -79v-89h276zM373 759h99v-104h-99v104z" />
    <glyph glyph-name="fl" unicode="fl" horiz-adv-x="540" 
d="M99 0v416h-68v87h68v93q0 77 38 120t97 43h77v-86h-58q-59 0 -59 -79v-91h109v-87h-109v-416h-95zM455 759v-759h-95v759h95z" />
    <glyph glyph-name="f_f_i" unicode="ffi" horiz-adv-x="832" 
d="M745 503v-502h-95v414h-106v1h-74v-416h-95v416h-65v-1h-116v-415h-95v415h-68v88h68v93q0 77 38 120t97 43h57v-88h-38q-59 0 -59 -79v-89h181v93q0 77 38 120t97 43h77v-86h-58q-59 0 -59 -79v-91h275zM648 759h99v-104h-99v104z" />
    <glyph glyph-name="f_f_l" unicode="ffl" horiz-adv-x="830" 
d="M375 596q0 77 38 120t97 43h77v-86h-58q-59 0 -59 -79v-91h109v-87h-109v-416h-95v416h-65v-1h-116v-415h-95v415h-68v88h68v93q0 77 38 120t97 43h57v-88h-38q-59 0 -59 -79v-89h181v93zM650 759h95v-759h-95v759z" />
    <glyph glyph-name=".notdef" horiz-adv-x="491" 
d="M402 759v-981h-311v981h311zM327 693h-162v-32h64v-36h-65v-33h163v33h-65v36h65v32zM262 567h-98v-102h163v33h-65v69zM229 533v-35h-33v35h33zM327 438h-163v-32h65v-36h-65v-33h98v69h65v32zM327 379h-33v-64h-130v-34h163v98zM327 260h-98v-55h33v22h32v-46h-98v79
h-32v-111h163v111zM327 90h-163v-111h163v111zM294 58v-47h-98v47h98zM327 -43h-163v-33h68l-68 -46v-32h163v32h-100l68 46h32v33z" />
    <glyph glyph-name=".null" horiz-adv-x="0" 
 />
    <glyph glyph-name="nonmarkingreturn" horiz-adv-x="333" 
 />
    <glyph glyph-name="space" unicode=" " horiz-adv-x="244" 
 />
    <glyph glyph-name="exclam" unicode="!" horiz-adv-x="301" 
d="M201 692l-6 -478h-90l-5 478h101zM202 107v-107h-104v107h104z" />
    <glyph glyph-name="quotedbl" unicode="&#x22;" horiz-adv-x="413" 
d="M173 700l-19 -219h-62l-19 219h100zM340 700l-18 -219h-62l-19 219h99z" />
    <glyph glyph-name="numbersign" unicode="#" horiz-adv-x="770" 
d="M541 700l-18 -200h172v-58h-178l-14 -162h167v-58h-173l-20 -222h-62l20 222h-136l-20 -222h-62l20 222h-157v58h163l14 162h-152v58h158l18 200h62l-18 -200h136l18 200h62zM455 442h-136l-14 -162h136z" />
    <glyph glyph-name="dollar" unicode="$" horiz-adv-x="559" 
d="M517 187q0 -77 -52 -134.5t-142 -65.5v-71h-47v71q-93 7 -160 59.5t-85 93.5l67 64q20 -35 70 -74.5t108 -46.5v240l-80 43q-117 65 -117 168q0 78 55 128t142 52v66h47v-69q108 -16 193 -128l-67 -63q-62 80 -126 95v-204l47 -24q147 -75 147 -200zM265 441l11 -6v184
q-45 -3 -70 -27t-25 -56q0 -30 22 -52t62 -43zM323 83q45 6 68.5 36t23.5 67q0 35 -23 60.5t-69 51.5v-215z" />
    <glyph glyph-name="percent" unicode="%" horiz-adv-x="945" 
d="M656 751l73 -41l-433 -751l-73 41zM250 714q71 0 120.5 -49.5t49.5 -121.5q0 -71 -49.5 -120.5t-120.5 -49.5t-120.5 49.5t-49.5 120.5q0 72 49.5 121.5t120.5 49.5zM250 627q-34 0 -58 -24.5t-24 -59.5q0 -34 24 -58t58 -24q35 0 59.5 24t24.5 58q0 35 -24.5 59.5
t-59.5 24.5zM694 326q72 0 121.5 -49.5t49.5 -120.5t-49.5 -120.5t-121.5 -49.5q-71 0 -120.5 49.5t-49.5 120.5t49.5 120.5t120.5 49.5zM694 239q-34 0 -58.5 -24.5t-24.5 -58.5q0 -35 24 -59.5t59 -24.5t59 24.5t24 59.5q0 34 -24.5 58.5t-58.5 24.5z" />
    <glyph glyph-name="ampersand" unicode="&#x26;" horiz-adv-x="721" 
d="M721 0h-124l-73 71q-93 -86 -214 -86q-101 0 -156.5 54t-55.5 126q0 105 139 188q-50 51 -73 90.5t-23 84.5q0 27 8.5 55.5t28.5 58t60.5 48.5t96.5 19q54 0 93 -17.5t58.5 -46.5t27.5 -56.5t8 -56.5q0 -60 -34.5 -104t-103.5 -88l135 -136q35 52 64 124l75 -34
q-23 -81 -75 -155zM335 621q-38 0 -64 -25t-26 -66q0 -33 17.5 -59.5t60.5 -69.5q58 35 79 61t21 64q0 51 -27 73t-61 22zM320 78q74 0 139 57l-158 155q-95 -62 -95 -120q0 -37 29.5 -64.5t84.5 -27.5z" />
    <glyph glyph-name="quotesingle" unicode="'" horiz-adv-x="184" 
d="M119 700l-18 -219h-62l-19 219h99z" />
    <glyph glyph-name="parenleft" unicode="(" horiz-adv-x="359" 
d="M245 796l59 -44q-168 -196 -168 -413q0 -214 167 -410l-63 -41q-89 95 -134.5 209.5t-45.5 233.5q0 123 48 244.5t137 220.5z" />
    <glyph glyph-name="parenright" unicode=")" horiz-adv-x="360" 
d="M115 796q89 -99 137 -220.5t48 -244.5q0 -119 -45.5 -233.5t-134.5 -209.5l-63 41q167 196 167 410q0 217 -168 413z" />
    <glyph glyph-name="asterisk" unicode="*" horiz-adv-x="497" 
d="M287 626l-4 -122l118 46l26 -72l-118 -40l82 -103l-61 -47l-81 114l-82 -114l-61 47l83 103l-119 40l26 72l118 -46l-4 122h77z" />
    <glyph glyph-name="plus" unicode="+" horiz-adv-x="643" 
d="M361 555v-212h212v-80h-212v-212h-80v212h-211v80h211v212h80z" />
    <glyph glyph-name="comma" unicode="," horiz-adv-x="214" 
d="M159 107v-107q0 -42 -16.5 -69.5t-55.5 -49.5l-27 33q49 25 49 73v13h-54v107h104z" />
    <glyph glyph-name="hyphen" unicode="-" horiz-adv-x="583" 
d="M493 338v-80h-403v80h403z" />
    <glyph glyph-name="period" unicode="." horiz-adv-x="234" 
d="M169 107v-107h-104v107h104z" />
    <glyph glyph-name="slash" unicode="/" horiz-adv-x="513" 
d="M374 783l79 -27l-314 -860l-79 27z" />
    <glyph glyph-name="zero" unicode="0" horiz-adv-x="650" 
d="M325 714q84 -1 145.5 -52.5t91 -132.5t29.5 -180q0 -100 -29.5 -180.5t-91 -131t-145.5 -51.5q-84 1 -145.5 52t-91 131.5t-29.5 179.5q0 155 70 259t196 106zM325 619q-77 -2 -120 -75t-43 -195t43 -194.5t120 -74.5q77 2 120 75.5t43 193.5q0 123 -43 195.5t-120 74.5z
" />
    <glyph glyph-name="one" unicode="1" horiz-adv-x="426" 
d="M316 700v-700h-99v572l-107 -97l-66 61l173 164h99z" />
    <glyph glyph-name="two" unicode="2" horiz-adv-x="585" 
d="M291 714q93 0 156 -61t63 -147q0 -104 -93 -203l-197 -204h295v-99h-426v93l259 277q63 68 63 133q0 43 -21.5 70.5t-46.5 36.5t-52 9q-76 0 -151 -102l-70 64q99 133 221 133z" />
    <glyph glyph-name="three" unicode="3" horiz-adv-x="588" 
d="M287 714q36 0 73 -10.5t72.5 -32.5t58 -62t22.5 -91q0 -106 -90 -155q42 -16 76 -58t34 -109q0 -94 -70 -152t-168 -58q-81 0 -143 41.5t-97 109.5l87 43q26 -46 67 -73t88 -27q54 0 94 32.5t40 88.5t-40.5 86t-93.5 30h-35v87h25q53 0 89 27t36 77t-35.5 80.5
t-86.5 30.5q-45 0 -81 -25.5t-55 -70.5l-92 37q29 77 92.5 115.5t132.5 38.5z" />
    <glyph glyph-name="four" unicode="4" horiz-adv-x="570" 
d="M436 700v-437h103v-89h-103v-174h-99v174h-306v79l295 447h110zM337 560l-200 -297h200v297z" />
    <glyph glyph-name="five" unicode="5" horiz-adv-x="594" 
d="M514 700v-99h-287l-24 -170q48 33 118 33q96 0 157 -61.5t61 -164.5q0 -109 -67 -180.5t-174 -71.5q-155 0 -233 150l86 43q21 -50 65 -74.5t88 -24.5q60 0 96.5 45.5t36.5 106.5q0 59 -34.5 103.5t-101.5 44.5q-70 0 -112 -59l-85 33l44 346h366z" />
    <glyph glyph-name="six" unicode="6" horiz-adv-x="582" 
d="M339 724l89 -43l-155 -236q16 3 34 3q85 0 153.5 -60.5t68.5 -171.5q0 -113 -72 -171.5t-167 -58.5q-42 0 -81.5 12.5t-74 37.5t-55.5 69.5t-21 102.5q0 86 60 179zM292 366q-54 0 -94.5 -36.5t-40.5 -106.5q0 -71 40.5 -107t94.5 -36q55 0 95.5 36.5t40.5 106.5
t-40.5 106.5t-95.5 36.5z" />
    <glyph glyph-name="seven" unicode="7" horiz-adv-x="543" 
d="M483 700v-89l-253 -611h-109l250 601h-320l-1 99h433z" />
    <glyph glyph-name="eight" unicode="8" horiz-adv-x="595" 
d="M297 714q50 0 97.5 -19t84 -65.5t36.5 -112.5q0 -103 -87 -152q106 -52 106 -168q0 -100 -72 -155.5t-164 -55.5q-58 0 -110.5 22t-89.5 72t-37 118q0 115 106 167q-88 48 -88 152q0 66 36.5 112.5t84 65.5t97.5 19zM297 619q-49 0 -82.5 -27.5t-33.5 -76.5
q0 -56 33 -85.5t83 -29.5t83 29.5t33 85.5q0 49 -33.5 76.5t-82.5 27.5zM298 327q-54 0 -95 -30.5t-41 -92.5q0 -63 41.5 -93.5t94.5 -30.5t94 30.5t41 93.5t-41 93t-94 30z" />
    <glyph glyph-name="nine" unicode="9" horiz-adv-x="582" 
d="M243 -24l-89 43l155 236q-17 -3 -34 -3q-85 0 -153.5 60.5t-68.5 171.5q0 113 72 171.5t167 58.5q42 0 81.5 -12.5t74 -37.5t55.5 -69.5t21 -102.5q0 -86 -60 -179zM290 334q54 0 94.5 36.5t40.5 106.5q0 71 -40.5 107t-94.5 36q-55 0 -95.5 -36.5t-40.5 -106.5
t40.5 -106.5t95.5 -36.5z" />
    <glyph glyph-name="colon" unicode=":" horiz-adv-x="194" 
d="M149 503v-107h-104v107h104zM149 107v-107h-104v107h104z" />
    <glyph glyph-name="semicolon" unicode=";" horiz-adv-x="194" 
d="M149 503v-107h-104v107h104zM149 107v-107q0 -42 -16.5 -69.5t-55.5 -49.5l-27 33q49 25 49 73v13h-54v107h104z" />
    <glyph glyph-name="less" unicode="&#x3c;" horiz-adv-x="601" 
d="M546 584v-89l-381 -164l381 -164v-89l-491 214v78z" />
    <glyph glyph-name="equal" unicode="=" horiz-adv-x="723" 
d="M643 425v-75h-563v75h563zM643 228v-75h-563v75h563z" />
    <glyph glyph-name="greater" unicode="&#x3e;" horiz-adv-x="601" 
d="M55 584l491 -214v-78l-491 -214v89l381 164l-381 164v89z" />
    <glyph glyph-name="question" unicode="?" horiz-adv-x="399" 
d="M183 713q81 0 125 -43.5t44 -112.5q0 -35 -16.5 -66.5t-39.5 -53.5t-46 -42.5t-39.5 -43t-16.5 -45.5q0 -43 45 -93l-74 -36q-64 66 -64 131q0 36 16.5 67t39.5 52.5t46 41.5t39.5 41.5t16.5 44.5q0 32 -22.5 51.5t-51.5 19.5q-40 0 -87 -40l-42 70q61 57 127 57z
M229 107v-107h-104v107h104z" />
    <glyph glyph-name="at" unicode="@" horiz-adv-x="1094" 
d="M690 714q138 0 222 -95.5t84 -243.5v-228q0 -94 -53 -139t-126 -45q-111 0 -165 89q-58 -66 -152 -66q-91 0 -155 75.5t-64 190.5t64 190t155 75q89 0 147 -61l1 47h95v-355q0 -47 23 -70t55 -23q38 0 57.5 28.5t19.5 102.5v189q0 116 -65 181t-176 65h-150
q-160 0 -252 -105.5t-92 -265.5q0 -95 41 -179.5t120.5 -139t179.5 -54.5q89 0 161 44l77 -58q-106 -72 -236 -72q-189 0 -317 132.5t-128 326.5q0 195 126 329t322 135h181zM515 430q-66 0 -101.5 -47.5t-35.5 -130.5t35.5 -130.5t101.5 -47.5q65 0 101 47.5t36 130.5
t-36 130.5t-101 47.5z" />
    <glyph glyph-name="A" unicode="A" horiz-adv-x="555" 
d="M441 0l-34 113h-259l-34 -113h-101l220 700h89l220 -700h-101zM176 204h203l-101 335z" />
    <glyph glyph-name="B" unicode="B" horiz-adv-x="612" 
d="M316 700q58 0 102 -19t66 -48.5t32.5 -58t10.5 -53.5q0 -52 -20.5 -93t-54.5 -62q46 -21 75.5 -65.5t29.5 -106.5q0 -75 -56 -134.5t-165 -59.5h-245v700h225zM306 606h-116v-202h116q64 0 90 29t26 72t-26 72t-90 29zM322 316h-132v-222h132q66 0 98 31.5t32 79.5
t-32 79.5t-98 31.5z" />
    <glyph glyph-name="C" unicode="C" horiz-adv-x="680" 
d="M383 714q159 0 266 -142l-67 -65q-78 112 -197 112q-103 0 -166 -75t-63 -194t62.5 -194t165.5 -75q120 0 198 112l67 -65q-105 -142 -268 -142q-141 0 -234 103.5t-93 261.5t93.5 260.5t235.5 102.5z" />
    <glyph glyph-name="D" unicode="D" horiz-adv-x="681" 
d="M91 0v700h209q140 0 233.5 -100t93.5 -250q0 -153 -93.5 -251.5t-233.5 -98.5h-209zM190 95h110q100 0 162.5 70.5t62.5 184.5q0 111 -63 183t-162 72h-110v-510z" />
    <glyph glyph-name="E" unicode="E" horiz-adv-x="482" 
d="M430 700v-93h-240v-196h223v-92h-223v-227h240v-92h-339v700h339z" />
    <glyph glyph-name="F" unicode="F" horiz-adv-x="456" 
d="M428 700v-93h-238v-195h221v-92h-221v-320h-99v700h337z" />
    <glyph glyph-name="G" unicode="G" horiz-adv-x="742" 
d="M378 -14q-139 0 -231.5 103.5t-92.5 261.5t93.5 260.5t238.5 102.5q167 0 272 -146l-69 -65q-29 46 -81.5 81t-124.5 35q-102 0 -164.5 -75t-62.5 -194q0 -120 62.5 -194.5t165.5 -74.5q90 0 141.5 56.5t53.5 143.5h-227v86h315v-367h-84v83q-26 -44 -81.5 -70.5
t-123.5 -26.5z" />
    <glyph glyph-name="H" unicode="H" horiz-adv-x="672" 
d="M581 700v-700h-99v309h-292v-309h-99v700h99v-298h292v298h99z" />
    <glyph glyph-name="I" unicode="I" horiz-adv-x="485" 
d="M420 700v-91h-128v-518h128v-91h-355v91h128v518h-128v91h355z" />
    <glyph glyph-name="J" unicode="J" horiz-adv-x="303" 
d="M218 700v-531q0 -86 -64.5 -136t-128.5 -50v94q40 2 67 32t27 88v503h99z" />
    <glyph glyph-name="K" unicode="K" horiz-adv-x="605" 
d="M605 0h-127l-288 331v-331h-99v700h99v-313l268 313h123l-295 -339z" />
    <glyph glyph-name="L" unicode="L" horiz-adv-x="418" 
d="M190 700v-607h203v-93h-302v700h99z" />
    <glyph glyph-name="M" unicode="M" horiz-adv-x="830" 
d="M91 0v700h148l175 -392l187 392h138v-700h-99v581l-175 -382h-101l-174 382v-581h-99z" />
    <glyph glyph-name="N" unicode="N" horiz-adv-x="704" 
d="M613 700v-700h-107l-316 531v-531h-99v700h104l319 -527v527h99z" />
    <glyph glyph-name="O" unicode="O" horiz-adv-x="762" 
d="M381 714q140 0 233.5 -103t93.5 -261t-93.5 -261t-233.5 -103t-233.5 103t-93.5 261t93.5 261t233.5 103zM381 619q-100 0 -162.5 -75t-62.5 -194t62.5 -194t162.5 -75t162.5 75t62.5 194t-62.5 194t-162.5 75z" />
    <glyph glyph-name="P" unicode="P" horiz-adv-x="568" 
d="M307 700q105 0 164.5 -60t59.5 -150t-59.5 -150.5t-164.5 -60.5h-117v-279h-99v700h216zM291 607h-101v-235h101q72 0 106 32.5t34 85.5t-34 85t-106 32z" />
    <glyph glyph-name="Q" unicode="Q" horiz-adv-x="762" 
d="M708 350q0 -89 -32 -163.5t-89 -124.5l75 -92l-70 -57l-81 100q-64 -27 -130 -27q-140 0 -233.5 103t-93.5 261t93.5 261t233.5 103t233.5 -103t93.5 -261zM381 81q37 0 66 10l-59 73l70 57l68 -83q80 75 80 212q0 119 -62.5 194t-162.5 75t-162.5 -75t-62.5 -194
t62.5 -194t162.5 -75z" />
    <glyph glyph-name="R" unicode="R" horiz-adv-x="595" 
d="M595 0h-120l-234 279h-51v-279h-99v700h216q105 0 164.5 -60t59.5 -150q0 -79 -46.5 -136.5t-130.5 -70.5zM190 607v-235h101q72 0 106 32.5t34 85.5t-34 85t-106 32h-101z" />
    <glyph glyph-name="S" unicode="S" horiz-adv-x="559" 
d="M297 -14q-54 0 -104 18.5t-82.5 45.5t-52.5 50t-27 40l67 64q22 -40 79 -81.5t122 -41.5q56 0 86 31t30 74q0 38 -27 65t-83 57l-109 58q-117 65 -117 168q0 79 57.5 129.5t147.5 50.5q80 0 134.5 -37t97.5 -94l-67 -63q-21 28 -39.5 46t-52 35.5t-71.5 17.5
q-49 0 -77 -24.5t-28 -58.5q0 -30 22 -52t62 -43l105 -54q147 -75 147 -200q0 -83 -59.5 -142t-160.5 -59z" />
    <glyph glyph-name="T" unicode="T" horiz-adv-x="476" 
d="M441 700v-91h-154v-609h-99v609h-153v91h406z" />
    <glyph glyph-name="U" unicode="U" horiz-adv-x="680" 
d="M599 700v-437q0 -134 -70 -205.5t-189 -71.5t-189 71.5t-70 205.5v437h99v-430q0 -189 160 -189t160 189v430h99z" />
    <glyph glyph-name="V" unicode="V" horiz-adv-x="593" 
d="M589 700l-243 -700h-99l-243 700h107l186 -563l185 563h107z" />
    <glyph glyph-name="W" unicode="W" horiz-adv-x="922" 
d="M917 700l-273 -700h-99l-84 215l-84 -215h-99l-273 700h107l216 -571l82 217l-138 354h107l82 -217l82 217h107l-138 -353l83 -218l215 571h107z" />
    <glyph glyph-name="X" unicode="X" horiz-adv-x="488" 
d="M463 700l-168 -354l163 -346h-102l-112 237l-112 -237h-102l163 346l-168 354h104l115 -245l115 245h104z" />
    <glyph glyph-name="Y" unicode="Y" horiz-adv-x="527" 
d="M403 700h103l-282 -700h-100l104 261l-207 439h104l149 -321z" />
    <glyph glyph-name="Z" unicode="Z" horiz-adv-x="513" 
d="M417 700v-86l-236 -521h256v-93h-369v82l235 525h-231v93h345z" />
    <glyph glyph-name="bracketleft" unicode="[" horiz-adv-x="448" 
d="M358 840v-80h-145v-799h145v-70h-233v949h233z" />
    <glyph glyph-name="backslash" unicode="\" horiz-adv-x="530" 
d="M139 783l313 -860l-78 -27l-313 860z" />
    <glyph glyph-name="bracketright" unicode="]" horiz-adv-x="448" 
d="M323 840v-949h-233v70h145v799h-145v80h233z" />
    <glyph glyph-name="asciicircum" unicode="^" horiz-adv-x="642" 
d="M379 700l209 -411h-99l-170 333l-180 -333h-90l209 411h121z" />
    <glyph glyph-name="underscore" unicode="_" horiz-adv-x="672" 
d="M637 -17v-65h-602v65h602z" />
    <glyph glyph-name="grave" unicode="`" horiz-adv-x="358" 
d="M200 691l88 -131h-87l-131 131h130z" />
    <glyph glyph-name="a" unicode="a" horiz-adv-x="513" 
d="M262 517q22 0 43.5 -3.5t49 -14.5t48 -29.5t34.5 -52.5t14 -78v-339h-87v67q-27 -36 -72.5 -58.5t-99.5 -22.5q-64 0 -106 33.5t-42 98.5q0 69 48.5 111.5t138.5 67.5l125 35v14q0 43 -28.5 64.5t-67.5 21.5q-73 0 -137 -76l-65 56q87 105 204 105zM356 251l-110 -31
q-107 -30 -107 -93q0 -28 18.5 -42t45.5 -14q49 0 101 35.5t52 88.5v56z" />
    <glyph glyph-name="b" unicode="b" horiz-adv-x="608" 
d="M326 -14q-93 0 -151 66v-52h-90v759h95v-303q58 61 146 61q98 0 163 -74.5t65 -190.5t-65 -191t-163 -75zM315 74q66 0 104 47.5t38 130.5t-38 130.5t-104 47.5q-65 0 -102.5 -47.5t-37.5 -130.5t37.5 -130.5t102.5 -47.5z" />
    <glyph glyph-name="c" unicode="c" horiz-adv-x="535" 
d="M292 -14q-104 0 -171 74.5t-67 191.5t67 191t171 74q66 0 120 -31t85 -79l-65 -57q-62 80 -137 80q-68 0 -106 -47.5t-38 -130.5t38 -131t106 -48q82 0 137 77l65 -56q-31 -48 -83 -78t-122 -30z" />
    <glyph glyph-name="d" unicode="d" horiz-adv-x="608" 
d="M282 -14q-98 0 -163 75t-65 191t65 190.5t163 74.5q88 0 146 -61v303h95v-759h-90v52q-58 -66 -151 -66zM293 74q65 0 102.5 47.5t37.5 130.5t-37.5 130.5t-102.5 47.5q-66 0 -104 -47.5t-38 -130.5t38 -130.5t104 -47.5z" />
    <glyph glyph-name="e" unicode="e" horiz-adv-x="560" 
d="M305 -14q-113 0 -182 73.5t-69 192.5q0 115 67 190t171 75q97 0 158 -64.5t61 -177.5v-62h-359q5 -60 44.5 -101t107.5 -41q75 0 142 55l57 -65q-93 -75 -198 -75zM152 291h271q-2 65 -37 103t-94 38q-66 0 -102 -41t-38 -100z" />
    <glyph glyph-name="f" unicode="f" horiz-adv-x="310" 
d="M99 0v416h-68v87h68v93q0 77 38 120t97 43h77v-86h-58q-59 0 -59 -79v-91h109v-87h-109v-416h-95z" />
    <glyph glyph-name="g" unicode="g" 
d="M263 -234q-118 0 -210 71l39 80q85 -64 173 -64q26 0 50.5 7.5t47.5 24t37 48t14 73.5v47q-55 -67 -147 -67q-97 0 -162 75t-65 191t65 190.5t163 74.5q88 0 146 -61v47h95v-503q0 -112 -70 -173t-176 -61zM279 74q65 0 102.5 47.5t37.5 130.5t-37.5 130.5t-102.5 47.5
q-66 0 -104 -47.5t-38 -130.5t38 -130.5t104 -47.5z" />
    <glyph glyph-name="h" unicode="h" horiz-adv-x="585" 
d="M326 517q82 0 133.5 -50t51.5 -144v-323h-95v300q0 130 -110 130q-63 0 -94.5 -43t-31.5 -118v-269h-95v759h95v-306q52 64 146 64z" />
    <glyph glyph-name="i" unicode="i" horiz-adv-x="269" 
d="M184 700v-104h-99v104h99zM182 503v-503h-95v503h95z" />
    <glyph glyph-name="j" unicode="j" horiz-adv-x="267" 
d="M193 700v-104h-99v104h99zM191 503v-561q0 -84 -42.5 -125t-107.5 -41h-27v87h13q69 0 69 77v563h95z" />
    <glyph glyph-name="k" unicode="k" horiz-adv-x="518" 
d="M504 0h-118l-206 264v-264h-95v759h95v-460l185 204h121l-208 -222z" />
    <glyph glyph-name="l" unicode="l" horiz-adv-x="265" 
d="M180 759v-759h-95v759h95z" />
    <glyph glyph-name="m" unicode="m" horiz-adv-x="868" 
d="M619 517q75 0 125 -50.5t50 -143.5v-323h-95v300q0 59 -26.5 94.5t-76.5 35.5q-48 0 -78.5 -36.5t-30.5 -113.5v-280h-95v300q0 60 -28 95t-81 35q-103 0 -103 -147v-283h-95v503h89v-53q20 30 58.5 48.5t83.5 18.5q96 0 149 -81q23 39 64 60t90 21z" />
    <glyph glyph-name="n" unicode="n" horiz-adv-x="585" 
d="M85 0v503h89v-58q50 72 152 72q82 0 133.5 -50t51.5 -144v-323h-95v300q0 130 -110 130q-63 0 -94.5 -43t-31.5 -118v-269h-95z" />
    <glyph glyph-name="o" unicode="o" 
d="M292 517q104 0 171 -74t67 -191t-67 -191.5t-171 -74.5t-171 74.5t-67 191.5t67 191t171 74zM292 430q-65 0 -103 -48t-38 -130q0 -83 38 -131t103 -48t103 48t38 131q0 82 -38 130t-103 48z" />
    <glyph glyph-name="p" unicode="p" horiz-adv-x="608" 
d="M326 517q98 0 163 -75t65 -191t-65 -190.5t-163 -74.5q-88 0 -146 61v-269h-95v725h90v-52q58 66 151 66zM315 429q-65 0 -102.5 -47.5t-37.5 -130.5t37.5 -130.5t102.5 -47.5q66 0 104 47.5t38 130.5t-38 130.5t-104 47.5z" />
    <glyph glyph-name="q" unicode="q" horiz-adv-x="608" 
d="M282 517q93 0 151 -66v52h90v-725h-95v269q-58 -61 -146 -61q-98 0 -163 74.5t-65 190.5t65 191t163 75zM293 429q-66 0 -104 -47.5t-38 -130.5t38 -130.5t104 -47.5q65 0 102.5 47.5t37.5 130.5t-37.5 130.5t-102.5 47.5z" />
    <glyph glyph-name="r" unicode="r" horiz-adv-x="348" 
d="M327 507v-94h-44q-47 0 -75 -33t-28 -93v-287h-95v503h89v-74q45 78 127 78h26z" />
    <glyph glyph-name="s" unicode="s" horiz-adv-x="443" 
d="M219 517q40 0 77 -18t55.5 -35t47.5 -49l-61 -56q-56 74 -119 74q-24 0 -41.5 -13t-17.5 -34q0 -23 15 -37.5t66 -40.5q74 -39 101 -63q52 -48 52 -112q0 -62 -45.5 -104.5t-118.5 -42.5q-107 0 -196 104l58 62q70 -81 137 -81q31 0 52 16.5t21 45.5q0 8 -2.5 15.5
t-6 13.5t-11.5 13.5t-14 12t-18 12t-19 11t-22.5 12t-22.5 12.5q-63 33 -90.5 66t-27.5 83q0 53 42.5 93t108.5 40z" />
    <glyph glyph-name="t" unicode="t" horiz-adv-x="335" 
d="M236 0q-63 0 -97.5 33t-34.5 116v267h-78v87h78v146h95v-146h104v-87h-104v-251q0 -48 15 -64.5t56 -16.5h31v-84h-65z" />
    <glyph glyph-name="u" unicode="u" 
d="M499 503v-503h-89v58q-50 -72 -152 -72q-82 0 -133.5 50t-51.5 144v323h95v-300q0 -130 110 -130q63 0 94.5 43t31.5 118v269h95z" />
    <glyph glyph-name="v" unicode="v" horiz-adv-x="512" 
d="M501 503l-197 -503h-96l-197 503h98l147 -403l147 403h98z" />
    <glyph glyph-name="w" unicode="w" horiz-adv-x="763" 
d="M659 503h94l-211 -503h-96l-64 152l-64 -152h-96l-212 503h94l165 -391l65 153l-100 238h94l53 -126l54 126h94l-100 -239l64 -152z" />
    <glyph glyph-name="x" unicode="x" horiz-adv-x="527" 
d="M512 0h-106l-142 193l-143 -193h-106l196 264l-177 239h105l125 -168l124 168h105l-177 -239z" />
    <glyph glyph-name="y" unicode="y" horiz-adv-x="524" 
d="M418 503h97l-244 -608q-48 -119 -164 -119h-36v88h40q24 0 46 13t31 36l34 87l-211 503h100l157 -384z" />
    <glyph glyph-name="z" unicode="z" horiz-adv-x="480" 
d="M414 503v-75l-243 -340h257v-88h-366v82l238 333h-218v88h332z" />
    <glyph glyph-name="braceleft" unicode="{" horiz-adv-x="424" 
d="M318 838h36v-56h-36q-66 0 -66 -92v-224q0 -65 -61 -101q61 -36 61 -100v-224q0 -92 66 -92h36v-56h-36q-67 0 -108 36.5t-41 102.5v235q0 41 -17 58.5t-62 17.5v45q42 0 60.5 18t18.5 58v235q0 66 41 102.5t108 36.5z" />
    <glyph glyph-name="bar" unicode="|" horiz-adv-x="277" 
d="M180 759v-898h-83v898h83z" />
    <glyph glyph-name="braceright" unicode="}" horiz-adv-x="424" 
d="M106 838q67 0 108 -36.5t41 -102.5v-235q0 -40 18.5 -58t60.5 -18v-45q-45 0 -62 -17.5t-17 -58.5v-235q0 -66 -41 -102.5t-108 -36.5h-36v56h36q66 0 66 92v224q0 64 61 100q-61 36 -61 101v224q0 92 -66 92h-36v56h36z" />
    <glyph glyph-name="asciitilde" unicode="~" horiz-adv-x="691" 
d="M238 433q40 0 97 -31t91 -31q61 0 103 44l50 -39q-19 -37 -62 -64t-89 -27q-40 0 -99.5 29.5t-90.5 29.5q-63 0 -99 -39l-44 45q19 33 58.5 58t84.5 25z" />
    <glyph glyph-name="exclamdown" unicode="&#xa1;" horiz-adv-x="301" 
d="M202 585h-104v107h104v-107zM201 0h-101l5 478h90z" />
    <glyph glyph-name="cent" unicode="&#xa2;" horiz-adv-x="535" 
d="M324 75q61 11 108 75l65 -56q-60 -93 -173 -106v-72h-47v70q-98 6 -160.5 80t-62.5 186t62.5 185.5t160.5 79.5v66h47v-68q56 -7 101 -36.5t72 -71.5l-65 -57q-52 67 -108 77v-352zM151 252q0 -77 33 -124t93 -54v355q-60 -6 -93 -52.5t-33 -124.5z" />
    <glyph glyph-name="sterling" unicode="&#xa3;" horiz-adv-x="598" 
d="M195 86h320l1 -86h-441l-1 83q64 57 80 112.5t-7 110.5h-98v65h72q-37 87 -37 133q0 82 58.5 147.5t158.5 65.5q54 0 104.5 -22.5t76.5 -45t56 -54.5l-66 -62q-27 28 -45 43.5t-52.5 30.5t-73.5 15q-51 0 -81 -33t-30 -85q0 -65 28 -133h223v-65h-196q19 -65 4.5 -122.5
t-54.5 -97.5z" />
    <glyph glyph-name="currency" unicode="&#xa4;" horiz-adv-x="659" 
d="M512 584l67 -67l-60 -61q35 -56 35 -121q0 -68 -35 -122l60 -61l-67 -67l-60 60q-53 -36 -123 -36q-68 0 -122 35l-60 -59l-67 67l60 60q-37 55 -37 124q0 66 36 122l-59 59l67 67l59 -59q56 36 123 36q64 0 123 -37zM329 476q-59 0 -100 -41.5t-41 -99.5t41.5 -99
t99.5 -41q59 0 100 42t41 99q0 56 -41.5 98t-99.5 42z" />
    <glyph glyph-name="yen" unicode="&#xa5;" horiz-adv-x="618" 
d="M546 700l-150 -373h135v-65h-161l-26 -64h187v-65h-213l-54 -133h-100l53 133h-129v65h155l25 63v1h-180v65h149l-176 373h104l149 -321l129 321h103z" />
    <glyph glyph-name="brokenbar" unicode="&#xa6;" horiz-adv-x="277" 
d="M180 759v-352h-83v352h83zM180 213v-352h-83v352h83z" />
    <glyph glyph-name="section" unicode="&#xa7;" horiz-adv-x="655" 
d="M353 717q49 0 92 -20.5t64.5 -41.5t46.5 -53l-59 -55q-21 26 -34.5 40.5t-43.5 30t-66 15.5q-42 0 -66 -22t-24 -55q0 -57 112 -105l24 -12t26.5 -13.5t25 -14t26.5 -17t23.5 -18t23 -21t18 -23.5t15.5 -27.5t8.5 -31t3.5 -35.5q0 -58 -31 -98.5t-87 -57.5
q67 -55 67 -140q0 -72 -52 -123.5t-139 -51.5q-52 0 -96.5 16t-72.5 40.5t-43.5 44t-22.5 34.5l59 56q20 -35 69.5 -72t106.5 -37q49 0 75.5 27.5t26.5 65.5q0 40 -32.5 69.5t-109.5 63.5q-74 36 -109 78t-35 107q0 47 35.5 88.5t92.5 56.5q-50 29 -74 64t-24 87
q0 73 50 117t130 44zM347 367q-46 -7 -80 -33.5t-34 -73.5q0 -63 112 -115l33 -16q48 0 75 34t27 75q0 37 -32.5 66t-100.5 63z" />
    <glyph glyph-name="dieresis" unicode="&#xa8;" horiz-adv-x="491" 
d="M191 687v-105h-105v105h105zM405 687v-105h-105v105h105z" />
    <glyph glyph-name="copyright" unicode="&#xa9;" horiz-adv-x="837" 
d="M419 714q146 0 250 -106.5t104 -257.5t-104 -257.5t-250 -106.5t-250 106.5t-104 257.5t104 257.5t250 106.5zM419 638q-113 0 -193.5 -84t-80.5 -204t80.5 -204t193.5 -84t193.5 84t80.5 204t-80.5 204t-193.5 84zM419 563q119 0 173 -118l-73 -40q-19 39 -41.5 56
t-55.5 17q-104 0 -104 -129q0 -130 103 -130q63 0 95 63l73 -41q-23 -50 -66.5 -78.5t-101.5 -28.5q-86 0 -140.5 60.5t-54.5 154.5q0 93 54 153.5t139 60.5z" />
    <glyph glyph-name="guillemotleft" unicode="&#xab;" horiz-adv-x="618" 
d="M259 534l47 -36l-122 -199l122 -199l-47 -36l-174 235zM486 534l47 -36l-122 -199l122 -199l-47 -36l-174 235z" />
    <glyph glyph-name="logicalnot" unicode="&#xac;" horiz-adv-x="723" 
d="M623 448v-275h-80v195h-443v80h523z" />
    <glyph glyph-name="registered" unicode="&#xae;" horiz-adv-x="838" 
d="M419 714q146 0 250 -106.5t104 -257.5t-104 -257.5t-250 -106.5t-250 106.5t-104 257.5t104 257.5t250 106.5zM419 62q113 0 193.5 84t80.5 204t-80.5 204t-193.5 84t-193.5 -84t-80.5 -204t80.5 -204t193.5 -84zM571 431q0 -41 -25 -80t-87 -52l117 -169h-98l-109 162
v-162h-84v440h125q48 0 82 -14t50 -37t22.5 -44.5t6.5 -43.5zM369 489v-113h41q76 0 76 55q0 13 -1.5 20.5t-8.5 17.5t-23.5 15t-42.5 5h-41z" />
    <glyph glyph-name="macron" unicode="&#xaf;" horiz-adv-x="477" 
d="M405 649v-69h-329v69h329z" />
    <glyph glyph-name="degree" unicode="&#xb0;" horiz-adv-x="350" 
d="M175 714q-68 0 -116.5 -48.5t-48.5 -116.5t48.5 -117t116.5 -49t116.5 49t48.5 117t-48.5 116.5t-116.5 48.5zM175 639q36 0 63 -27t27 -63q0 -37 -27 -64t-63 -27t-63 27t-27 64q0 36 27 63t63 27z" />
    <glyph glyph-name="plusminus" unicode="&#xb1;" horiz-adv-x="740" 
d="M418 674v-212h212v-80h-212v-212h-80v212h-211v80h211v212h80zM630 80v-80h-503v80h503z" />
    <glyph glyph-name="acute" unicode="&#xb4;" horiz-adv-x="282" 
d="M292 691l-131 -131h-87l88 131h130z" />
    <glyph glyph-name="uni00B5" unicode="&#xb5;" 
d="M404 503h95v-503h-89v58q-50 -72 -152 -72q-52 0 -90 19v-199h-95v697h95v-300q0 -130 110 -130q63 0 94.5 43t31.5 118v269z" />
    <glyph glyph-name="paragraph" unicode="&#xb6;" horiz-adv-x="832" 
d="M732 700v-83h-67v-839h-97v839h-142v-839h-97v503q-78 0 -134.5 63t-56.5 147q0 83 56.5 146t134.5 63h403z" />
    <glyph glyph-name="periodcentered" unicode="&#xb7;" horiz-adv-x="298" 
d="M149 367q21 0 35 -14t14 -35t-14 -35t-35 -14t-35 14t-14 35t14 35t35 14z" />
    <glyph glyph-name="cedilla" unicode="&#xb8;" horiz-adv-x="341" 
d="M221 -67l-72 -160l-104 44l108 116h68z" />
    <glyph glyph-name="guillemotright" unicode="&#xbb;" horiz-adv-x="618" 
d="M132 534l174 -235l-174 -235l-47 36l122 199l-122 199zM359 534l174 -235l-174 -235l-47 36l122 199l-122 199z" />
    <glyph glyph-name="questiondown" unicode="&#xbf;" horiz-adv-x="399" 
d="M176 372v107h104v-107h-104zM222 -234q-81 0 -125 43.5t-44 112.5q0 35 16.5 66.5t39.5 53.5t46 42.5t39.5 43t16.5 45.5q0 43 -45 93l74 36q64 -66 64 -131q0 -36 -16.5 -67t-39.5 -52.5t-46 -41.5t-39.5 -41.5t-16.5 -44.5q0 -32 22.5 -51.5t51.5 -19.5q40 0 87 40
l42 -70q-61 -57 -127 -57z" />
    <glyph glyph-name="Agrave" unicode="&#xc0;" horiz-adv-x="555" 
d="M337 760h-87l-131 131h130zM441 0l-34 113h-259l-34 -113h-101l220 700h89l220 -700h-101zM176 204h203l-101 335z" />
    <glyph glyph-name="Aacute" unicode="&#xc1;" horiz-adv-x="555" 
d="M440 891l-131 -131h-87l88 131h130zM441 0l-34 113h-259l-34 -113h-101l220 700h89l220 -700h-101zM176 204h203l-101 335z" />
    <glyph glyph-name="Acircumflex" unicode="&#xc2;" horiz-adv-x="555" 
d="M278 809l-47 -57h-98l116 131h58l116 -131h-98zM441 0l-34 113h-259l-34 -113h-101l220 700h89l220 -700h-101zM176 204h203l-101 335z" />
    <glyph glyph-name="Atilde" unicode="&#xc3;" horiz-adv-x="555" 
d="M204 803q-40 0 -69 -38l-33 43q33 69 94 69q34 0 83 -20.5t79 -20.5q38 0 63 36l37 -35q-12 -30 -38.5 -51t-61.5 -21q-33 0 -79.5 19t-74.5 19zM441 0l-34 113h-259l-34 -113h-101l220 700h89l220 -700h-101zM176 204h203l-101 335z" />
    <glyph glyph-name="Adieresis" unicode="&#xc4;" horiz-adv-x="555" 
d="M223 887v-105h-105v105h105zM437 887v-105h-105v105h105zM441 0l-34 113h-259l-34 -113h-101l220 700h89l220 -700h-101zM176 204h203l-101 335z" />
    <glyph glyph-name="Aring" unicode="&#xc5;" horiz-adv-x="555" 
d="M277 743q-37 0 -62 25t-25 62t25 62t62 25t62.5 -25t25.5 -62t-25.5 -62t-62.5 -25zM277 872q-17 0 -29.5 -13t-12.5 -29q0 -18 12.5 -30.5t29.5 -12.5t29.5 12.5t12.5 30.5q0 16 -12.5 29t-29.5 13zM441 0l-34 113h-259l-34 -113h-101l220 700h89l220 -700h-101z
M176 204h203l-101 335z" />
    <glyph glyph-name="AE" unicode="&#xc6;" horiz-adv-x="740" 
d="M688 607h-240v-196h223v-92h-223v-227h240v-92h-339v176h-175l-60 -176h-101l240 700h435v-93zM205 265h144v342h-27z" />
    <glyph glyph-name="Ccedilla" unicode="&#xc7;" horiz-adv-x="680" 
d="M383 714q159 0 266 -142l-67 -65q-78 112 -197 112q-103 0 -166 -75t-63 -194t62.5 -194t165.5 -75q120 0 198 112l67 -65q-105 -142 -268 -142q-141 0 -234 103.5t-93 261.5t93.5 260.5t235.5 102.5zM418 -67l-72 -160l-104 44l108 116h68z" />
    <glyph glyph-name="Egrave" unicode="&#xc8;" horiz-adv-x="482" 
d="M226 891l88 -131h-87l-131 131h130zM430 700v-93h-240v-196h223v-92h-223v-227h240v-92h-339v700h339z" />
    <glyph glyph-name="Eacute" unicode="&#xc9;" horiz-adv-x="482" 
d="M417 891l-131 -131h-87l88 131h130zM430 700v-93h-240v-196h223v-92h-223v-227h240v-92h-339v700h339z" />
    <glyph glyph-name="Ecircumflex" unicode="&#xca;" horiz-adv-x="482" 
d="M284 883l116 -131h-98l-47 57l-47 -57h-98l116 131h58zM430 700v-93h-240v-196h223v-92h-223v-227h240v-92h-339v700h339z" />
    <glyph glyph-name="Edieresis" unicode="&#xcb;" horiz-adv-x="482" 
d="M200 887v-105h-105v105h105zM414 887v-105h-105v105h105zM430 700v-93h-240v-196h223v-92h-223v-227h240v-92h-339v700h339z" />
    <glyph glyph-name="Igrave" unicode="&#xcc;" horiz-adv-x="485" 
d="M214 891l88 -131h-87l-131 131h130zM420 700v-91h-128v-518h128v-91h-355v91h128v518h-128v91h355z" />
    <glyph glyph-name="Iacute" unicode="&#xcd;" horiz-adv-x="485" 
d="M405 891l-131 -131h-87l88 131h130zM420 700v-91h-128v-518h128v-91h-355v91h128v518h-128v91h355z" />
    <glyph glyph-name="Icircumflex" unicode="&#xce;" horiz-adv-x="485" 
d="M272 883l116 -131h-98l-47 57l-47 -57h-98l116 131h58zM420 700v-91h-128v-518h128v-91h-355v91h128v518h-128v91h355z" />
    <glyph glyph-name="Idieresis" unicode="&#xcf;" horiz-adv-x="485" 
d="M188 887v-105h-105v105h105zM402 887v-105h-105v105h105zM420 700v-91h-128v-518h128v-91h-355v91h128v518h-128v91h355z" />
    <glyph glyph-name="Eth" unicode="&#xd0;" horiz-adv-x="749" 
d="M341 700q160 -5 252 -99t92 -252q0 -161 -93 -255t-258 -94h-192v296h-97v91h97v313h199zM334 94q114 0 180 65t66 190t-64.5 190t-175.5 67h-95v-219h166v-91h-166v-202h89z" />
    <glyph glyph-name="Ntilde" unicode="&#xd1;" horiz-adv-x="704" 
d="M270 877q34 0 83 -20.5t79 -20.5q38 0 63 36l37 -35q-12 -30 -38.5 -51t-61.5 -21q-33 0 -79.5 19t-74.5 19q-40 0 -69 -38l-33 43q33 69 94 69zM613 700v-700h-107l-316 531v-531h-99v700h104l319 -527v527h99z" />
    <glyph glyph-name="Ograve" unicode="&#xd2;" horiz-adv-x="762" 
d="M352 891l88 -131h-87l-131 131h130zM381 714q140 0 233.5 -103t93.5 -261t-93.5 -261t-233.5 -103t-233.5 103t-93.5 261t93.5 261t233.5 103zM381 619q-100 0 -162.5 -75t-62.5 -194t62.5 -194t162.5 -75t162.5 75t62.5 194t-62.5 194t-162.5 75z" />
    <glyph glyph-name="Oacute" unicode="&#xd3;" horiz-adv-x="762" 
d="M543 891l-131 -131h-87l88 131h130zM381 714q140 0 233.5 -103t93.5 -261t-93.5 -261t-233.5 -103t-233.5 103t-93.5 261t93.5 261t233.5 103zM381 619q-100 0 -162.5 -75t-62.5 -194t62.5 -194t162.5 -75t162.5 75t62.5 194t-62.5 194t-162.5 75z" />
    <glyph glyph-name="Ocircumflex" unicode="&#xd4;" horiz-adv-x="762" 
d="M410 883l116 -131h-98l-47 57l-47 -57h-98l116 131h58zM381 714q140 0 233.5 -103t93.5 -261t-93.5 -261t-233.5 -103t-233.5 103t-93.5 261t93.5 261t233.5 103zM381 619q-100 0 -162.5 -75t-62.5 -194t62.5 -194t162.5 -75t162.5 75t62.5 194t-62.5 194t-162.5 75z" />
    <glyph glyph-name="Otilde" unicode="&#xd5;" horiz-adv-x="762" 
d="M299 877q34 0 83 -20.5t79 -20.5q38 0 63 36l37 -35q-12 -30 -38.5 -51t-61.5 -21q-33 0 -79.5 19t-74.5 19q-40 0 -69 -38l-33 43q33 69 94 69zM381 714q140 0 233.5 -103t93.5 -261t-93.5 -261t-233.5 -103t-233.5 103t-93.5 261t93.5 261t233.5 103zM381 619
q-100 0 -162.5 -75t-62.5 -194t62.5 -194t162.5 -75t162.5 75t62.5 194t-62.5 194t-162.5 75z" />
    <glyph glyph-name="Odieresis" unicode="&#xd6;" horiz-adv-x="762" 
d="M326 887v-105h-105v105h105zM540 887v-105h-105v105h105zM381 714q140 0 233.5 -103t93.5 -261t-93.5 -261t-233.5 -103t-233.5 103t-93.5 261t93.5 261t233.5 103zM381 619q-100 0 -162.5 -75t-62.5 -194t62.5 -194t162.5 -75t162.5 75t62.5 194t-62.5 194t-162.5 75z
" />
    <glyph glyph-name="multiply" unicode="&#xd7;" horiz-adv-x="583" 
d="M418 473l57 -57l-127 -127l127 -127l-57 -57l-127 127l-126 -127l-57 57l126 127l-126 127l57 57l126 -127z" />
    <glyph glyph-name="Oslash" unicode="&#xd8;" horiz-adv-x="818" 
d="M710 729l-90 -124q88 -102 88 -255q0 -158 -93.5 -261t-233.5 -103q-96 0 -173 51l-75 -103l-63 46l79 108q-95 105 -95 262q0 158 93.5 261t233.5 103q102 0 181 -57l86 118zM156 350q0 -108 52 -180l298 409q-54 40 -125 40q-100 0 -162.5 -75t-62.5 -194zM606 350
q0 99 -46 172l-296 -407q53 -34 117 -34q100 0 162.5 75t62.5 194z" />
    <glyph glyph-name="Ugrave" unicode="&#xd9;" horiz-adv-x="680" 
d="M311 878l88 -131h-87l-131 131h130zM599 700v-437q0 -134 -70 -205.5t-189 -71.5t-189 71.5t-70 205.5v437h99v-430q0 -189 160 -189t160 189v430h99z" />
    <glyph glyph-name="Uacute" unicode="&#xda;" horiz-adv-x="680" 
d="M502 878l-131 -131h-87l88 131h130zM599 700v-437q0 -134 -70 -205.5t-189 -71.5t-189 71.5t-70 205.5v437h99v-430q0 -189 160 -189t160 189v430h99z" />
    <glyph glyph-name="Ucircumflex" unicode="&#xdb;" horiz-adv-x="680" 
d="M369 870l116 -131h-98l-47 57l-47 -57h-98l116 131h58zM599 700v-437q0 -134 -70 -205.5t-189 -71.5t-189 71.5t-70 205.5v437h99v-430q0 -189 160 -189t160 189v430h99z" />
    <glyph glyph-name="Udieresis" unicode="&#xdc;" horiz-adv-x="680" 
d="M285 874v-105h-105v105h105zM499 874v-105h-105v105h105zM599 700v-437q0 -134 -70 -205.5t-189 -71.5t-189 71.5t-70 205.5v437h99v-430q0 -189 160 -189t160 189v430h99z" />
    <glyph glyph-name="Yacute" unicode="&#xdd;" horiz-adv-x="527" 
d="M426 891l-131 -131h-87l88 131h130zM403 700h103l-282 -700h-100l104 261l-207 439h104l149 -321z" />
    <glyph glyph-name="Thorn" unicode="&#xde;" horiz-adv-x="564" 
d="M307 576q105 0 164.5 -60t59.5 -150t-59.5 -150.5t-164.5 -60.5h-117v-155h-99v700h99v-124h117zM291 248q72 0 106 32.5t34 85.5t-34 85t-106 32h-101v-235h101z" />
    <glyph glyph-name="germandbls" unicode="&#xdf;" horiz-adv-x="652" 
d="M436 353q73 -22 123 -74.5t50 -123.5q0 -69 -47 -119t-121 -50q-62 0 -104.5 32.5t-66.5 72.5l52 65q19 -23 31 -35.5t35 -25.5t48 -13q34 0 55 21t21 59q0 46 -43 82.5t-157 75.5v83q44 0 75 11t44.5 29.5t18.5 35t5 34.5q0 50 -32.5 82t-86.5 32q-55 0 -86.5 -36.5
t-31.5 -108.5v-482h-95v319h-61v84h61v67q0 116 51.5 180t159.5 64q49 0 88.5 -14t63 -35.5t39 -48.5t21.5 -50.5t6 -45.5q0 -50 -30.5 -99.5t-85.5 -67.5z" />
    <glyph glyph-name="agrave" unicode="&#xe0;" horiz-adv-x="513" 
d="M225 694l88 -131h-87l-131 131h130zM262 517q22 0 43.5 -3.5t49 -14.5t48 -29.5t34.5 -52.5t14 -78v-339h-87v67q-27 -36 -72.5 -58.5t-99.5 -22.5q-64 0 -106 33.5t-42 98.5q0 69 48.5 111.5t138.5 67.5l125 35v14q0 43 -28.5 64.5t-67.5 21.5q-73 0 -137 -76l-65 56
q87 105 204 105zM356 251l-110 -31q-107 -30 -107 -93q0 -28 18.5 -42t45.5 -14q49 0 101 35.5t52 88.5v56z" />
    <glyph glyph-name="aacute" unicode="&#xe1;" horiz-adv-x="513" 
d="M416 694l-131 -131h-87l88 131h130zM262 517q22 0 43.5 -3.5t49 -14.5t48 -29.5t34.5 -52.5t14 -78v-339h-87v67q-27 -36 -72.5 -58.5t-99.5 -22.5q-64 0 -106 33.5t-42 98.5q0 69 48.5 111.5t138.5 67.5l125 35v14q0 43 -28.5 64.5t-67.5 21.5q-73 0 -137 -76l-65 56
q87 105 204 105zM356 251l-110 -31q-107 -30 -107 -93q0 -28 18.5 -42t45.5 -14q49 0 101 35.5t52 88.5v56z" />
    <glyph glyph-name="acircumflex" unicode="&#xe2;" horiz-adv-x="513" 
d="M283 686l116 -131h-98l-47 57l-47 -57h-98l116 131h58zM262 517q22 0 43.5 -3.5t49 -14.5t48 -29.5t34.5 -52.5t14 -78v-339h-87v67q-27 -36 -72.5 -58.5t-99.5 -22.5q-64 0 -106 33.5t-42 98.5q0 69 48.5 111.5t138.5 67.5l125 35v14q0 43 -28.5 64.5t-67.5 21.5
q-73 0 -137 -76l-65 56q87 105 204 105zM356 251l-110 -31q-107 -30 -107 -93q0 -28 18.5 -42t45.5 -14q49 0 101 35.5t52 88.5v56z" />
    <glyph glyph-name="atilde" unicode="&#xe3;" horiz-adv-x="513" 
d="M172 680q34 0 83 -20.5t79 -20.5q38 0 63 36l37 -35q-12 -30 -38.5 -51t-61.5 -21q-33 0 -79.5 19t-74.5 19q-40 0 -69 -38l-33 43q33 69 94 69zM262 517q22 0 43.5 -3.5t49 -14.5t48 -29.5t34.5 -52.5t14 -78v-339h-87v67q-27 -36 -72.5 -58.5t-99.5 -22.5
q-64 0 -106 33.5t-42 98.5q0 69 48.5 111.5t138.5 67.5l125 35v14q0 43 -28.5 64.5t-67.5 21.5q-73 0 -137 -76l-65 56q87 105 204 105zM356 251l-110 -31q-107 -30 -107 -93q0 -28 18.5 -42t45.5 -14q49 0 101 35.5t52 88.5v56z" />
    <glyph glyph-name="adieresis" unicode="&#xe4;" horiz-adv-x="513" 
d="M199 690v-105h-105v105h105zM413 690v-105h-105v105h105zM262 517q22 0 43.5 -3.5t49 -14.5t48 -29.5t34.5 -52.5t14 -78v-339h-87v67q-27 -36 -72.5 -58.5t-99.5 -22.5q-64 0 -106 33.5t-42 98.5q0 69 48.5 111.5t138.5 67.5l125 35v14q0 43 -28.5 64.5t-67.5 21.5
q-73 0 -137 -76l-65 56q87 105 204 105zM356 251l-110 -31q-107 -30 -107 -93q0 -28 18.5 -42t45.5 -14q49 0 101 35.5t52 88.5v56z" />
    <glyph glyph-name="aring" unicode="&#xe5;" horiz-adv-x="513" 
d="M253 720q37 0 62.5 -25t25.5 -62t-25.5 -62t-62.5 -25t-62 25t-25 62t25 62t62 25zM253 675q-17 0 -29.5 -12.5t-12.5 -29.5q0 -18 12.5 -30.5t29.5 -12.5t29.5 12.5t12.5 30.5q0 17 -12.5 29.5t-29.5 12.5zM262 517q22 0 43.5 -3.5t49 -14.5t48 -29.5t34.5 -52.5t14 -78
v-339h-87v67q-27 -36 -72.5 -58.5t-99.5 -22.5q-64 0 -106 33.5t-42 98.5q0 69 48.5 111.5t138.5 67.5l125 35v14q0 43 -28.5 64.5t-67.5 21.5q-73 0 -137 -76l-65 56q87 105 204 105zM356 251l-110 -31q-107 -30 -107 -93q0 -28 18.5 -42t45.5 -14q49 0 101 35.5t52 88.5
v56z" />
    <glyph glyph-name="ae" unicode="&#xe6;" horiz-adv-x="855" 
d="M806 213h-357q5 -60 44 -101t106 -41q73 0 142 54l57 -64q-93 -75 -198 -75q-141 0 -209 111q-17 -38 -75 -74.5t-122 -36.5q-66 0 -108 32t-42 97q0 71 54.5 116t141.5 68l111 29v18q0 43 -27 64.5t-65 21.5q-72 0 -135 -75l-66 55q87 105 203 105q106 0 157 -84
q24 33 69.5 58.5t100.5 25.5q96 0 157 -64.5t61 -177.5v-62zM718 291q-2 65 -37 103t-95 38q-64 0 -99.5 -41t-37.5 -100h269zM351 247l-96 -25q-60 -16 -88 -43.5t-28 -56.5q0 -26 18 -38.5t44 -12.5q49 0 99.5 35.5t50.5 88.5v52z" />
    <glyph glyph-name="ccedilla" unicode="&#xe7;" horiz-adv-x="535" 
d="M292 -14q-104 0 -171 74.5t-67 191.5t67 191t171 74q66 0 120 -31t85 -79l-65 -57q-62 80 -137 80q-68 0 -106 -47.5t-38 -130.5t38 -131t106 -48q82 0 137 77l65 -56q-31 -48 -83 -78t-122 -30zM336 -67l-72 -160l-104 44l108 116h68z" />
    <glyph glyph-name="egrave" unicode="&#xe8;" horiz-adv-x="560" 
d="M252 694l88 -131h-87l-131 131h130zM305 -14q-113 0 -182 73.5t-69 192.5q0 115 67 190t171 75q97 0 158 -64.5t61 -177.5v-62h-359q5 -60 44.5 -101t107.5 -41q75 0 142 55l57 -65q-93 -75 -198 -75zM152 291h271q-2 65 -37 103t-94 38q-66 0 -102 -41t-38 -100z" />
    <glyph glyph-name="eacute" unicode="&#xe9;" horiz-adv-x="560" 
d="M443 694l-131 -131h-87l88 131h130zM305 -14q-113 0 -182 73.5t-69 192.5q0 115 67 190t171 75q97 0 158 -64.5t61 -177.5v-62h-359q5 -60 44.5 -101t107.5 -41q75 0 142 55l57 -65q-93 -75 -198 -75zM152 291h271q-2 65 -37 103t-94 38q-66 0 -102 -41t-38 -100z" />
    <glyph glyph-name="ecircumflex" unicode="&#xea;" horiz-adv-x="560" 
d="M310 686l116 -131h-98l-47 57l-47 -57h-98l116 131h58zM305 -14q-113 0 -182 73.5t-69 192.5q0 115 67 190t171 75q97 0 158 -64.5t61 -177.5v-62h-359q5 -60 44.5 -101t107.5 -41q75 0 142 55l57 -65q-93 -75 -198 -75zM152 291h271q-2 65 -37 103t-94 38
q-66 0 -102 -41t-38 -100z" />
    <glyph glyph-name="edieresis" unicode="&#xeb;" horiz-adv-x="560" 
d="M226 690v-105h-105v105h105zM440 690v-105h-105v105h105zM305 -14q-113 0 -182 73.5t-69 192.5q0 115 67 190t171 75q97 0 158 -64.5t61 -177.5v-62h-359q5 -60 44.5 -101t107.5 -41q75 0 142 55l57 -65q-93 -75 -198 -75zM152 291h271q-2 65 -37 103t-94 38
q-66 0 -102 -41t-38 -100z" />
    <glyph glyph-name="igrave" unicode="&#xec;" horiz-adv-x="289" 
d="M141 691l88 -131h-87l-131 131h130zM180 503v-503h-95v503h95z" />
    <glyph glyph-name="iacute" unicode="&#xed;" horiz-adv-x="289" 
d="M284 691l-131 -131h-87l88 131h130zM180 503v-503h-95v503h95z" />
    <glyph glyph-name="icircumflex" unicode="&#xee;" horiz-adv-x="289" 
d="M161 683l116 -131h-98l-47 57l-47 -57h-98l116 131h58zM180 503v-503h-95v503h95z" />
    <glyph glyph-name="idieresis" unicode="&#xef;" horiz-adv-x="289" 
d="M80 687v-105h-105v105h105zM294 687v-105h-105v105h105zM180 503v-503h-95v503h95z" />
    <glyph glyph-name="eth" unicode="&#xf0;" horiz-adv-x="576" 
d="M269 764q35 -29 72 -68l99 53l29 -54l-87 -46q140 -173 140 -397q0 -117 -65.5 -191.5t-168.5 -74.5t-168.5 74.5t-65.5 191.5q0 116 65 190.5t161 74.5q71 0 113 -47q-22 66 -86 139l-117 -63l-29 54l102 55q-38 36 -68 61zM288 430q-65 0 -101 -47.5t-36 -130.5
t36 -130.5t101 -47.5t101 47.5t36 130.5t-36 130.5t-101 47.5z" />
    <glyph glyph-name="ntilde" unicode="&#xf1;" horiz-adv-x="585" 
d="M211 680q34 0 83 -20.5t79 -20.5q38 0 63 36l37 -35q-12 -30 -38.5 -51t-61.5 -21q-33 0 -79.5 19t-74.5 19q-40 0 -69 -38l-33 43q33 69 94 69zM85 0v503h89v-58q50 72 152 72q82 0 133.5 -50t51.5 -144v-323h-95v300q0 130 -110 130q-63 0 -94.5 -43t-31.5 -118v-269
h-95z" />
    <glyph glyph-name="ograve" unicode="&#xf2;" 
d="M263 691l88 -131h-87l-131 131h130zM292 517q104 0 171 -74t67 -191t-67 -191.5t-171 -74.5t-171 74.5t-67 191.5t67 191t171 74zM292 430q-65 0 -103 -48t-38 -130q0 -83 38 -131t103 -48t103 48t38 131q0 82 -38 130t-103 48z" />
    <glyph glyph-name="oacute" unicode="&#xf3;" 
d="M454 691l-131 -131h-87l88 131h130zM292 517q104 0 171 -74t67 -191t-67 -191.5t-171 -74.5t-171 74.5t-67 191.5t67 191t171 74zM292 430q-65 0 -103 -48t-38 -130q0 -83 38 -131t103 -48t103 48t38 131q0 82 -38 130t-103 48z" />
    <glyph glyph-name="ocircumflex" unicode="&#xf4;" 
d="M321 683l116 -131h-98l-47 57l-47 -57h-98l116 131h58zM292 517q104 0 171 -74t67 -191t-67 -191.5t-171 -74.5t-171 74.5t-67 191.5t67 191t171 74zM292 430q-65 0 -103 -48t-38 -130q0 -83 38 -131t103 -48t103 48t38 131q0 82 -38 130t-103 48z" />
    <glyph glyph-name="otilde" unicode="&#xf5;" 
d="M210 677q34 0 83 -20.5t79 -20.5q38 0 63 36l37 -35q-12 -30 -38.5 -51t-61.5 -21q-33 0 -79.5 19t-74.5 19q-40 0 -69 -38l-33 43q33 69 94 69zM292 517q104 0 171 -74t67 -191t-67 -191.5t-171 -74.5t-171 74.5t-67 191.5t67 191t171 74zM292 430q-65 0 -103 -48
t-38 -130q0 -83 38 -131t103 -48t103 48t38 131q0 82 -38 130t-103 48z" />
    <glyph glyph-name="odieresis" unicode="&#xf6;" 
d="M237 687v-105h-105v105h105zM451 687v-105h-105v105h105zM292 517q104 0 171 -74t67 -191t-67 -191.5t-171 -74.5t-171 74.5t-67 191.5t67 191t171 74zM292 430q-65 0 -103 -48t-38 -130q0 -83 38 -131t103 -48t103 48t38 131q0 82 -38 130t-103 48z" />
    <glyph glyph-name="divide" unicode="&#xf7;" horiz-adv-x="627" 
d="M366 561v-111h-104v111h104zM587 341v-80h-546v80h546zM366 151v-111h-104v111h104z" />
    <glyph glyph-name="oslash" unicode="&#xf8;" horiz-adv-x="604" 
d="M467 438q63 -72 63 -186q0 -117 -67 -191.5t-171 -74.5q-72 0 -127 37l-54 -74l-46 33l57 78q-68 74 -68 192q0 117 67 191t171 74q76 0 133 -40l46 63l46 -33zM151 252q0 -70 27 -115l194 268q-33 25 -80 25q-65 0 -103 -48t-38 -130zM292 73q65 0 103 48t38 131
q0 64 -23 108l-193 -265q33 -22 75 -22z" />
    <glyph glyph-name="ugrave" unicode="&#xf9;" 
d="M257 691l88 -131h-87l-131 131h130zM499 503v-503h-89v58q-50 -72 -152 -72q-82 0 -133.5 50t-51.5 144v323h95v-300q0 -130 110 -130q63 0 94.5 43t31.5 118v269h95z" />
    <glyph glyph-name="uacute" unicode="&#xfa;" 
d="M448 691l-131 -131h-87l88 131h130zM499 503v-503h-89v58q-50 -72 -152 -72q-82 0 -133.5 50t-51.5 144v323h95v-300q0 -130 110 -130q63 0 94.5 43t31.5 118v269h95z" />
    <glyph glyph-name="ucircumflex" unicode="&#xfb;" 
d="M315 683l116 -131h-98l-47 57l-47 -57h-98l116 131h58zM499 503v-503h-89v58q-50 -72 -152 -72q-82 0 -133.5 50t-51.5 144v323h95v-300q0 -130 110 -130q63 0 94.5 43t31.5 118v269h95z" />
    <glyph glyph-name="udieresis" unicode="&#xfc;" 
d="M231 687v-105h-105v105h105zM445 687v-105h-105v105h105zM499 503v-503h-89v58q-50 -72 -152 -72q-82 0 -133.5 50t-51.5 144v323h95v-300q0 -130 110 -130q63 0 94.5 43t31.5 118v269h95z" />
    <glyph glyph-name="yacute" unicode="&#xfd;" horiz-adv-x="524" 
d="M431 691l-131 -131h-87l88 131h130zM418 503h97l-244 -608q-48 -119 -164 -119h-36v88h40q24 0 46 13t31 36l34 87l-211 503h100l157 -384z" />
    <glyph glyph-name="thorn" unicode="&#xfe;" horiz-adv-x="600" 
d="M327 517q91 0 155 -75.5t64 -190.5t-64 -190t-155 -75q-89 0 -147 61v-269h-95v981h95v-303q58 61 147 61zM312 73q63 0 100 48t37 130t-37 130t-100 48t-100 -48t-37 -130t37 -130t100 -48z" />
    <glyph glyph-name="ydieresis" unicode="&#xff;" horiz-adv-x="524" 
d="M214 687v-105h-105v105h105zM428 687v-105h-105v105h105zM418 503h97l-244 -608q-48 -119 -164 -119h-36v88h40q24 0 46 13t31 36l34 87l-211 503h100l157 -384z" />
    <glyph glyph-name="Amacron" unicode="&#x100;" horiz-adv-x="555" 
d="M442 849v-69h-329v69h329zM441 0l-34 113h-259l-34 -113h-101l220 700h89l220 -700h-101zM176 204h203l-101 335z" />
    <glyph glyph-name="amacron" unicode="&#x101;" horiz-adv-x="513" 
d="M418 652v-69h-329v69h329zM262 517q22 0 43.5 -3.5t49 -14.5t48 -29.5t34.5 -52.5t14 -78v-339h-87v67q-27 -36 -72.5 -58.5t-99.5 -22.5q-64 0 -106 33.5t-42 98.5q0 69 48.5 111.5t138.5 67.5l125 35v14q0 43 -28.5 64.5t-67.5 21.5q-73 0 -137 -76l-65 56
q87 105 204 105zM356 251l-110 -31q-107 -30 -107 -93q0 -28 18.5 -42t45.5 -14q49 0 101 35.5t52 88.5v56z" />
    <glyph glyph-name="Abreve" unicode="&#x102;" horiz-adv-x="555" 
d="M278 762q-63 0 -98.5 36.5t-35.5 101.5h72q0 -72 62 -72q30 0 46 16t16 56h72q0 -66 -34 -102t-100 -36zM441 0l-34 113h-259l-34 -113h-101l220 700h89l220 -700h-101zM176 204h203l-101 335z" />
    <glyph glyph-name="abreve" unicode="&#x103;" horiz-adv-x="513" 
d="M388 703q0 -66 -34 -102t-100 -36q-63 0 -98.5 36.5t-35.5 101.5h72q0 -72 62 -72q30 0 46 16t16 56h72zM262 517q22 0 43.5 -3.5t49 -14.5t48 -29.5t34.5 -52.5t14 -78v-339h-87v67q-27 -36 -72.5 -58.5t-99.5 -22.5q-64 0 -106 33.5t-42 98.5q0 69 48.5 111.5
t138.5 67.5l125 35v14q0 43 -28.5 64.5t-67.5 21.5q-73 0 -137 -76l-65 56q87 105 204 105zM356 251l-110 -31q-107 -30 -107 -93q0 -28 18.5 -42t45.5 -14q49 0 101 35.5t52 88.5v56z" />
    <glyph glyph-name="Aogonek" unicode="&#x104;" horiz-adv-x="555" 
d="M460 -90q6 -21 30 -24.5t57 11.5v-73q-40 -20 -85 -13t-66 45q-21 34 -5 75t64 69h-14l-34 113h-259l-34 -113h-101l220 700h89l220 -700q-94 -45 -82 -90zM176 204h203l-101 335z" />
    <glyph glyph-name="aogonek" unicode="&#x105;" horiz-adv-x="513" 
d="M446 0q-94 -45 -82 -90q6 -21 30 -24.5t57 11.5v-73q-40 -20 -85 -13t-66 45q-21 34 -5 75t64 69h5v67q-27 -36 -72.5 -58.5t-99.5 -22.5q-64 0 -106 33.5t-42 98.5q0 69 48.5 111.5t138.5 67.5l125 35v14q0 43 -28.5 64.5t-67.5 21.5q-73 0 -137 -76l-65 56
q87 105 204 105q22 0 43.5 -3.5t49 -14.5t48 -29.5t34.5 -52.5t14 -78v-339h-5zM356 195v56l-110 -31q-107 -30 -107 -93q0 -28 18.5 -42t45.5 -14q49 0 101 35.5t52 88.5z" />
    <glyph glyph-name="Cacute" unicode="&#x106;" horiz-adv-x="680" 
d="M539 891l-131 -131h-87l88 131h130zM383 714q159 0 266 -142l-67 -65q-78 112 -197 112q-103 0 -166 -75t-63 -194t62.5 -194t165.5 -75q120 0 198 112l67 -65q-105 -142 -268 -142q-141 0 -234 103.5t-93 261.5t93.5 260.5t235.5 102.5z" />
    <glyph glyph-name="cacute" unicode="&#x107;" horiz-adv-x="535" 
d="M430 694l-131 -131h-87l88 131h130zM292 -14q-104 0 -171 74.5t-67 191.5t67 191t171 74q66 0 120 -31t85 -79l-65 -57q-62 80 -137 80q-68 0 -106 -47.5t-38 -130.5t38 -131t106 -48q82 0 137 77l65 -56q-31 -48 -83 -78t-122 -30z" />
    <glyph glyph-name="Ccircumflex" unicode="&#x108;" horiz-adv-x="680" 
d="M406 883l116 -131h-98l-47 57l-47 -57h-98l116 131h58zM383 714q159 0 266 -142l-67 -65q-78 112 -197 112q-103 0 -166 -75t-63 -194t62.5 -194t165.5 -75q120 0 198 112l67 -65q-105 -142 -268 -142q-141 0 -234 103.5t-93 261.5t93.5 260.5t235.5 102.5z" />
    <glyph glyph-name="ccircumflex" unicode="&#x109;" horiz-adv-x="535" 
d="M297 686l116 -131h-98l-47 57l-47 -57h-98l116 131h58zM292 -14q-104 0 -171 74.5t-67 191.5t67 191t171 74q66 0 120 -31t85 -79l-65 -57q-62 80 -137 80q-68 0 -106 -47.5t-38 -130.5t38 -131t106 -48q82 0 137 77l65 -56q-31 -48 -83 -78t-122 -30z" />
    <glyph glyph-name="Cdotaccent" unicode="&#x10a;" horiz-adv-x="680" 
d="M377 875q24 0 38.5 -14.5t14.5 -39.5q0 -23 -14.5 -37.5t-38.5 -14.5q-25 0 -39.5 14.5t-14.5 37.5q0 25 14.5 39.5t39.5 14.5zM383 714q159 0 266 -142l-67 -65q-78 112 -197 112q-103 0 -166 -75t-63 -194t62.5 -194t165.5 -75q120 0 198 112l67 -65
q-105 -142 -268 -142q-141 0 -234 103.5t-93 261.5t93.5 260.5t235.5 102.5z" />
    <glyph glyph-name="cdotaccent" unicode="&#x10b;" horiz-adv-x="535" 
d="M268 678q24 0 38.5 -14.5t14.5 -39.5q0 -23 -14.5 -37.5t-38.5 -14.5q-25 0 -39.5 14.5t-14.5 37.5q0 25 14.5 39.5t39.5 14.5zM292 -14q-104 0 -171 74.5t-67 191.5t67 191t171 74q66 0 120 -31t85 -79l-65 -57q-62 80 -137 80q-68 0 -106 -47.5t-38 -130.5t38 -131
t106 -48q82 0 137 77l65 -56q-31 -48 -83 -78t-122 -30z" />
    <glyph glyph-name="Ccaron" unicode="&#x10c;" horiz-adv-x="680" 
d="M522 890l-116 -131h-58l-116 131h98l47 -57l47 57h98zM383 714q159 0 266 -142l-67 -65q-78 112 -197 112q-103 0 -166 -75t-63 -194t62.5 -194t165.5 -75q120 0 198 112l67 -65q-105 -142 -268 -142q-141 0 -234 103.5t-93 261.5t93.5 260.5t235.5 102.5z" />
    <glyph glyph-name="ccaron" unicode="&#x10d;" horiz-adv-x="535" 
d="M413 693l-116 -131h-58l-116 131h98l47 -57l47 57h98zM292 -14q-104 0 -171 74.5t-67 191.5t67 191t171 74q66 0 120 -31t85 -79l-65 -57q-62 80 -137 80q-68 0 -106 -47.5t-38 -130.5t38 -131t106 -48q82 0 137 77l65 -56q-31 -48 -83 -78t-122 -30z" />
    <glyph glyph-name="Dcaron" unicode="&#x10e;" horiz-adv-x="681" 
d="M486 890l-116 -131h-58l-116 131h98l47 -57l47 57h98zM91 0v700h209q140 0 233.5 -100t93.5 -250q0 -153 -93.5 -251.5t-233.5 -98.5h-209zM190 95h110q100 0 162.5 70.5t62.5 184.5q0 111 -63 183t-162 72h-110v-510z" />
    <glyph glyph-name="dcaron" unicode="&#x10f;" horiz-adv-x="600" 
d="M282 -14q-98 0 -163 75t-65 191t65 190.5t163 74.5q88 0 146 -61v303h95v-759h-90v52q-58 -66 -151 -66zM692 716v-107q0 -42 -16.5 -69.5t-55.5 -49.5l-27 33q49 25 49 73v13h-54v107h104zM293 74q65 0 102.5 47.5t37.5 130.5t-37.5 130.5t-102.5 47.5q-66 0 -104 -47.5
t-38 -130.5t38 -130.5t104 -47.5z" />
    <glyph glyph-name="Dcroat" unicode="&#x110;" horiz-adv-x="749" 
d="M341 700q160 -5 252 -99t92 -252q0 -161 -93 -255t-258 -94h-192v296h-97v91h97v313h199zM334 94q114 0 180 65t66 190t-64.5 190t-175.5 67h-95v-219h166v-91h-166v-202h89z" />
    <glyph glyph-name="dcroat" unicode="&#x111;" horiz-adv-x="633" 
d="M608 659v-81h-85v-578h-90v52q-58 -66 -151 -66q-98 0 -163 75t-65 191t65 190.5t163 74.5q88 0 146 -61v122h-156v81h156v100h95v-100h85zM293 74q65 0 102.5 47.5t37.5 130.5t-37.5 130.5t-102.5 47.5q-66 0 -104 -47.5t-38 -130.5t38 -130.5t104 -47.5z" />
    <glyph glyph-name="Emacron" unicode="&#x112;" horiz-adv-x="482" 
d="M419 849v-69h-329v69h329zM430 700v-93h-240v-196h223v-92h-223v-227h240v-92h-339v700h339z" />
    <glyph glyph-name="emacron" unicode="&#x113;" horiz-adv-x="560" 
d="M445 652v-69h-329v69h329zM305 -14q-113 0 -182 73.5t-69 192.5q0 115 67 190t171 75q97 0 158 -64.5t61 -177.5v-62h-359q5 -60 44.5 -101t107.5 -41q75 0 142 55l57 -65q-93 -75 -198 -75zM152 291h271q-2 65 -37 103t-94 38q-66 0 -102 -41t-38 -100z" />
    <glyph glyph-name="Ebreve" unicode="&#x114;" horiz-adv-x="482" 
d="M389 900q0 -66 -34 -102t-100 -36q-63 0 -98.5 36.5t-35.5 101.5h72q0 -72 62 -72q30 0 46 16t16 56h72zM430 700v-93h-240v-196h223v-92h-223v-227h240v-92h-339v700h339z" />
    <glyph glyph-name="ebreve" unicode="&#x115;" horiz-adv-x="560" 
d="M415 703q0 -66 -34 -102t-100 -36q-63 0 -98.5 36.5t-35.5 101.5h72q0 -72 62 -72q30 0 46 16t16 56h72zM305 -14q-113 0 -182 73.5t-69 192.5q0 115 67 190t171 75q97 0 158 -64.5t61 -177.5v-62h-359q5 -60 44.5 -101t107.5 -41q75 0 142 55l57 -65q-93 -75 -198 -75z
M152 291h271q-2 65 -37 103t-94 38q-66 0 -102 -41t-38 -100z" />
    <glyph glyph-name="Edotaccent" unicode="&#x116;" horiz-adv-x="482" 
d="M255 875q24 0 38.5 -14.5t14.5 -39.5q0 -23 -14.5 -37.5t-38.5 -14.5q-25 0 -39.5 14.5t-14.5 37.5q0 25 14.5 39.5t39.5 14.5zM430 700v-93h-240v-196h223v-92h-223v-227h240v-92h-339v700h339z" />
    <glyph glyph-name="edotaccent" unicode="&#x117;" horiz-adv-x="560" 
d="M281 678q24 0 38.5 -14.5t14.5 -39.5q0 -23 -14.5 -37.5t-38.5 -14.5q-25 0 -39.5 14.5t-14.5 37.5q0 25 14.5 39.5t39.5 14.5zM305 -14q-113 0 -182 73.5t-69 192.5q0 115 67 190t171 75q97 0 158 -64.5t61 -177.5v-62h-359q5 -60 44.5 -101t107.5 -41q75 0 142 55
l57 -65q-93 -75 -198 -75zM152 291h271q-2 65 -37 103t-94 38q-66 0 -102 -41t-38 -100z" />
    <glyph glyph-name="Eogonek" unicode="&#x118;" horiz-adv-x="482" 
d="M348 -90q6 -21 30 -24.5t57 11.5v-73q-40 -20 -85 -13t-66 45q-21 34 -5 75t64 69h-252v700h339v-93h-240v-196h223v-92h-223v-227h240v-92q-94 -45 -82 -90z" />
    <glyph glyph-name="eogonek" unicode="&#x119;" horiz-adv-x="560" 
d="M511 275v-62h-359q5 -60 44.5 -101t107.5 -41q75 0 142 55l57 -65q-57 -46 -113 -62q-90 -45 -79 -89q6 -21 30 -24.5t57 11.5v-73q-40 -20 -85 -13t-66 45q-18 30 -8 66.5t47 64.5q-105 6 -168.5 78.5t-63.5 186.5q0 115 67 190t171 75q97 0 158 -64.5t61 -177.5z
M152 291h271q-2 65 -37 103t-94 38q-66 0 -102 -41t-38 -100z" />
    <glyph glyph-name="Ecaron" unicode="&#x11a;" horiz-adv-x="482" 
d="M400 890l-116 -131h-58l-116 131h98l47 -57l47 57h98zM430 700v-93h-240v-196h223v-92h-223v-227h240v-92h-339v700h339z" />
    <glyph glyph-name="ecaron" unicode="&#x11b;" horiz-adv-x="560" 
d="M426 693l-116 -131h-58l-116 131h98l47 -57l47 57h98zM305 -14q-113 0 -182 73.5t-69 192.5q0 115 67 190t171 75q97 0 158 -64.5t61 -177.5v-62h-359q5 -60 44.5 -101t107.5 -41q75 0 142 55l57 -65q-93 -75 -198 -75zM152 291h271q-2 65 -37 103t-94 38q-66 0 -102 -41
t-38 -100z" />
    <glyph glyph-name="Gcircumflex" unicode="&#x11c;" horiz-adv-x="742" 
d="M400 883l116 -131h-98l-47 57l-47 -57h-98l116 131h58zM378 -14q-139 0 -231.5 103.5t-92.5 261.5t93.5 260.5t238.5 102.5q167 0 272 -146l-69 -65q-29 46 -81.5 81t-124.5 35q-102 0 -164.5 -75t-62.5 -194q0 -120 62.5 -194.5t165.5 -74.5q90 0 141.5 56.5t53.5 143.5
h-227v86h315v-367h-84v83q-26 -44 -81.5 -70.5t-123.5 -26.5z" />
    <glyph glyph-name="gcircumflex" unicode="&#x11d;" 
d="M321 686l116 -131h-98l-47 57l-47 -57h-98l116 131h58zM263 -234q-118 0 -210 71l39 80q85 -64 173 -64q26 0 50.5 7.5t47.5 24t37 48t14 73.5v47q-55 -67 -147 -67q-97 0 -162 75t-65 191t65 190.5t163 74.5q88 0 146 -61v47h95v-503q0 -112 -70 -173t-176 -61zM279 74
q65 0 102.5 47.5t37.5 130.5t-37.5 130.5t-102.5 47.5q-66 0 -104 -47.5t-38 -130.5t38 -130.5t104 -47.5z" />
    <glyph glyph-name="Gbreve" unicode="&#x11e;" horiz-adv-x="742" 
d="M505 900q0 -66 -34 -102t-100 -36q-63 0 -98.5 36.5t-35.5 101.5h72q0 -72 62 -72q30 0 46 16t16 56h72zM378 -14q-139 0 -231.5 103.5t-92.5 261.5t93.5 260.5t238.5 102.5q167 0 272 -146l-69 -65q-29 46 -81.5 81t-124.5 35q-102 0 -164.5 -75t-62.5 -194
q0 -120 62.5 -194.5t165.5 -74.5q90 0 141.5 56.5t53.5 143.5h-227v86h315v-367h-84v83q-26 -44 -81.5 -70.5t-123.5 -26.5z" />
    <glyph glyph-name="gbreve" unicode="&#x11f;" 
d="M426 703q0 -66 -34 -102t-100 -36q-63 0 -98.5 36.5t-35.5 101.5h72q0 -72 62 -72q30 0 46 16t16 56h72zM263 -234q-118 0 -210 71l39 80q85 -64 173 -64q26 0 50.5 7.5t47.5 24t37 48t14 73.5v47q-55 -67 -147 -67q-97 0 -162 75t-65 191t65 190.5t163 74.5
q88 0 146 -61v47h95v-503q0 -112 -70 -173t-176 -61zM279 74q65 0 102.5 47.5t37.5 130.5t-37.5 130.5t-102.5 47.5q-66 0 -104 -47.5t-38 -130.5t38 -130.5t104 -47.5z" />
    <glyph glyph-name="Gdotaccent" unicode="&#x120;" horiz-adv-x="742" 
d="M371 875q24 0 38.5 -14.5t14.5 -39.5q0 -23 -14.5 -37.5t-38.5 -14.5q-25 0 -39.5 14.5t-14.5 37.5q0 25 14.5 39.5t39.5 14.5zM378 -14q-139 0 -231.5 103.5t-92.5 261.5t93.5 260.5t238.5 102.5q167 0 272 -146l-69 -65q-29 46 -81.5 81t-124.5 35q-102 0 -164.5 -75
t-62.5 -194q0 -120 62.5 -194.5t165.5 -74.5q90 0 141.5 56.5t53.5 143.5h-227v86h315v-367h-84v83q-26 -44 -81.5 -70.5t-123.5 -26.5z" />
    <glyph glyph-name="gdotaccent" unicode="&#x121;" 
d="M292 678q24 0 38.5 -14.5t14.5 -39.5q0 -23 -14.5 -37.5t-38.5 -14.5q-25 0 -39.5 14.5t-14.5 37.5q0 25 14.5 39.5t39.5 14.5zM263 -234q-118 0 -210 71l39 80q85 -64 173 -64q26 0 50.5 7.5t47.5 24t37 48t14 73.5v47q-55 -67 -147 -67q-97 0 -162 75t-65 191t65 190.5
t163 74.5q88 0 146 -61v47h95v-503q0 -112 -70 -173t-176 -61zM279 74q65 0 102.5 47.5t37.5 130.5t-37.5 130.5t-102.5 47.5q-66 0 -104 -47.5t-38 -130.5t38 -130.5t104 -47.5z" />
    <glyph glyph-name="Gcommaaccent" unicode="&#x122;" horiz-adv-x="752" 
d="M378 -14q-139 0 -231.5 103.5t-92.5 261.5t93.5 260.5t238.5 102.5q167 0 272 -146l-69 -65q-29 46 -81.5 81t-124.5 35q-102 0 -164.5 -75t-62.5 -194q0 -120 62.5 -194.5t165.5 -74.5q90 0 141.5 56.5t53.5 143.5h-227v86h315v-367h-84v83q-26 -44 -81.5 -70.5
t-123.5 -26.5zM449 -58v-97q0 -33 -17 -54t-57 -40l-27 33q51 19 51 48v13h-54v97h104z" />
    <glyph glyph-name="gcommaaccent" unicode="&#x123;" horiz-adv-x="628" 
d="M253 575v97q0 33 17 54t57 40l27 -33q-51 -19 -51 -48v-13h54v-97h-104zM263 -234q-118 0 -210 71l39 80q85 -64 173 -64q26 0 50.5 7.5t47.5 24t37 48t14 73.5v47q-55 -67 -147 -67q-97 0 -162 75t-65 191t65 190.5t163 74.5q88 0 146 -61v47h95v-503q0 -112 -70 -173
t-176 -61zM279 74q65 0 102.5 47.5t37.5 130.5t-37.5 130.5t-102.5 47.5q-66 0 -104 -47.5t-38 -130.5t38 -130.5t104 -47.5z" />
    <glyph glyph-name="Hcircumflex" unicode="&#x124;" horiz-adv-x="672" 
d="M365 883l116 -131h-98l-47 57l-47 -57h-98l116 131h58zM581 700v-700h-99v309h-292v-309h-99v700h99v-298h292v298h99z" />
    <glyph glyph-name="hcircumflex" unicode="&#x125;" horiz-adv-x="565" 
d="M327 860l116 -131h-98l-47 57l-47 -57h-98l116 131h58zM174 700v-250q44 67 141 67q79 0 127.5 -51.5t48.5 -152.5v-313h-95v290q0 140 -111 140q-51 0 -78 -33.5t-27 -113.5v-283h-95v700h89z" />
    <glyph glyph-name="Hbar" unicode="&#x126;" horiz-adv-x="662" 
d="M627 595v-81h-48v-514h-99v309h-292v-309h-99v514h-54v81h54v105h99v-105h292v105h99v-105h48zM480 402v112h-292v-112h292z" />
    <glyph glyph-name="hbar" unicode="&#x127;" horiz-adv-x="595" 
d="M336 517q82 0 133.5 -50t51.5 -144v-323h-95v300q0 130 -110 130q-63 0 -94.5 -43t-31.5 -118v-269h-95v578h-70v78h70v103h95v-103h144v-78h-144v-125q52 64 146 64z" />
    <glyph glyph-name="Itilde" unicode="&#x128;" horiz-adv-x="485" 
d="M161 877q34 0 83 -20.5t79 -20.5q38 0 63 36l37 -35q-12 -30 -38.5 -51t-61.5 -21q-33 0 -79.5 19t-74.5 19q-40 0 -69 -38l-33 43q33 69 94 69zM420 700v-91h-128v-518h128v-91h-355v91h128v518h-128v91h355z" />
    <glyph glyph-name="itilde" unicode="&#x129;" horiz-adv-x="265" 
d="M51 677q34 0 83 -20.5t79 -20.5q38 0 63 36l37 -35q-12 -30 -38.5 -51t-61.5 -21q-33 0 -79.5 19t-74.5 19q-40 0 -69 -38l-33 43q33 69 94 69zM180 503v-503h-95v503h95z" />
    <glyph glyph-name="Imacron" unicode="&#x12a;" horiz-adv-x="485" 
d="M407 849v-69h-329v69h329zM420 700v-91h-128v-518h128v-91h-355v91h128v518h-128v91h355z" />
    <glyph glyph-name="imacron" unicode="&#x12b;" horiz-adv-x="265" 
d="M297 649v-69h-329v69h329zM180 503v-503h-95v503h95z" />
    <glyph glyph-name="Iogonek" unicode="&#x12e;" horiz-adv-x="485" 
d="M338 -90q6 -21 30 -24.5t57 11.5v-73q-40 -20 -85 -13t-66 45q-21 34 -5 75t64 69h-268v91h128v518h-128v91h355v-91h-128v-518h128v-91q-94 -45 -82 -90z" />
    <glyph glyph-name="iogonek" unicode="&#x12f;" horiz-adv-x="269" 
d="M184 700v-104h-99v104h99zM100 -90q6 -21 30 -24.5t57 11.5v-73q-40 -20 -85 -13t-66 45q-21 34 -5 75t64 69h-8v503h95v-503q-94 -45 -82 -90z" />
    <glyph glyph-name="Idotaccent" unicode="&#x130;" horiz-adv-x="485" 
d="M243 875q24 0 38.5 -14.5t14.5 -39.5q0 -23 -14.5 -37.5t-38.5 -14.5q-25 0 -39.5 14.5t-14.5 37.5q0 25 14.5 39.5t39.5 14.5zM420 700v-91h-128v-518h128v-91h-355v91h128v518h-128v91h355z" />
    <glyph glyph-name="dotlessi" unicode="&#x131;" horiz-adv-x="265" 
d="M180 503v-503h-95v503h95z" />
    <glyph glyph-name="IJ" unicode="&#x132;" horiz-adv-x="788" 
d="M420 700v-91h-128v-518h128v-91h-355v91h128v518h-128v91h355zM703 700v-531q0 -86 -64.5 -136t-128.5 -50v94q40 2 67 32t27 88v503h99z" />
    <glyph glyph-name="ij" unicode="&#x133;" horiz-adv-x="536" 
d="M184 700v-104h-99v104h99zM462 700v-104h-99v104h99zM182 503v-503h-95v503h95zM460 503v-561q0 -84 -42.5 -125t-107.5 -41h-27v87h13q69 0 69 77v563h95z" />
    <glyph glyph-name="Jcircumflex" unicode="&#x134;" horiz-adv-x="303" 
d="M257 860l116 -131h-98l-47 57l-47 -57h-98l116 131h58zM218 700v-531q0 -86 -64.5 -136t-128.5 -50v94q40 2 67 32t27 88v503h99z" />
    <glyph glyph-name="jcircumflex" unicode="&#x135;" horiz-adv-x="307" 
d="M182 670l116 -131h-98l-47 57l-47 -57h-98l116 131h58zM191 500v-558q0 -84 -42.5 -125t-107.5 -41h-27v87h13q69 0 69 77v560h95z" />
    <glyph glyph-name="Kcommaaccent" unicode="&#x136;" horiz-adv-x="597" 
d="M286 361l319 -361h-127l-288 331v-331h-99v700h99v-313l268 313h123zM265 -147v97h104v-97q0 -33 -17 -54t-57 -40l-27 33q51 19 51 48v13h-54z" />
    <glyph glyph-name="kcommaaccent" unicode="&#x137;" horiz-adv-x="545" 
d="M278 281l226 -281h-118l-206 264v-264h-95v759h95v-460l185 204h121zM244 -147v97h104v-97q0 -33 -17 -54t-57 -40l-27 33q51 19 51 48v13h-54z" />
    <glyph glyph-name="Lacute" unicode="&#x139;" horiz-adv-x="418" 
d="M324 891l-131 -131h-87l88 131h130zM190 700v-607h203v-93h-302v700h99z" />
    <glyph glyph-name="lacute" unicode="&#x13a;" horiz-adv-x="305" 
d="M320 880l-131 -131h-87l88 131h130zM186 700v-700h-95v700h95z" />
    <glyph glyph-name="Lcommaaccent" unicode="&#x13b;" horiz-adv-x="418" 
d="M190 700v-607h203v-93h-302v700h99zM300 -50v-97q0 -33 -17 -54t-57 -40l-27 33q51 19 51 48v13h-54v97h104z" />
    <glyph glyph-name="lcommaaccent" unicode="&#x13c;" horiz-adv-x="277" 
d="M180 759v-759h-95v759h95zM194 -50v-97q0 -33 -17 -54t-57 -40l-27 33q51 19 51 48v13h-54v97h104z" />
    <glyph glyph-name="Lcaron" unicode="&#x13d;" horiz-adv-x="408" 
d="M190 700v-607h203v-93h-302v700h99zM364 700v-107q0 -42 -16.5 -69.5t-55.5 -49.5l-27 33q49 25 49 73v13h-54v107h104z" />
    <glyph glyph-name="lcaron" unicode="&#x13e;" horiz-adv-x="265" 
d="M180 759v-759h-95v759h95zM363 759v-107q0 -42 -16.5 -69.5t-55.5 -49.5l-27 33q49 25 49 73v13h-54v107h104z" />
    <glyph glyph-name="Ldot" unicode="&#x13f;" horiz-adv-x="408" 
d="M190 700v-607h203v-93h-302v700h99zM344 345q21 0 35 -14t14 -35t-14 -35t-35 -14t-35 14t-14 35t14 35t35 14z" />
    <glyph glyph-name="ldot" unicode="&#x140;" horiz-adv-x="265" 
d="M180 759v-759h-95v759h95zM327 342q21 0 35 -14t14 -35t-14 -35t-35 -14t-35 14t-14 35t14 35t35 14z" />
    <glyph glyph-name="Lslash" unicode="&#x141;" horiz-adv-x="402" 
d="M174 93h203v-93h-302v210l-34 -16l-36 80l70 33v393h99v-346l113 53l36 -80l-149 -70v-164z" />
    <glyph glyph-name="lslash" unicode="&#x142;" horiz-adv-x="418" 
d="M368 366l-113 -53v-313h-95v268l-74 -35l-36 80l110 52v394h95v-349l77 36z" />
    <glyph glyph-name="Nacute" unicode="&#x143;" horiz-adv-x="704" 
d="M514 891l-131 -131h-87l88 131h130zM613 700v-700h-107l-316 531v-531h-99v700h104l319 -527v527h99z" />
    <glyph glyph-name="nacute" unicode="&#x144;" horiz-adv-x="585" 
d="M455 694l-131 -131h-87l88 131h130zM85 0v503h89v-58q50 72 152 72q82 0 133.5 -50t51.5 -144v-323h-95v300q0 130 -110 130q-63 0 -94.5 -43t-31.5 -118v-269h-95z" />
    <glyph glyph-name="Ncommaaccent" unicode="&#x145;" horiz-adv-x="724" 
d="M613 700v-700h-107l-316 531v-531h-99v700h104l319 -527v527h99zM419 -50v-97q0 -33 -17 -54t-57 -40l-27 33q51 19 51 48v13h-54v97h104z" />
    <glyph glyph-name="ncommaaccent" unicode="&#x146;" horiz-adv-x="573" 
d="M85 0v503h89v-58q50 72 152 72q82 0 133.5 -50t51.5 -144v-323h-95v300q0 130 -110 130q-63 0 -94.5 -43t-31.5 -118v-269h-95zM346 -50v-97q0 -33 -17 -54t-57 -40l-27 33q51 19 51 48v13h-54v97h104z" />
    <glyph glyph-name="Ncaron" unicode="&#x147;" horiz-adv-x="704" 
d="M497 890l-116 -131h-58l-116 131h98l47 -57l47 57h98zM613 700v-700h-107l-316 531v-531h-99v700h104l319 -527v527h99z" />
    <glyph glyph-name="ncaron" unicode="&#x148;" horiz-adv-x="585" 
d="M438 693l-116 -131h-58l-116 131h98l47 -57l47 57h98zM85 0v503h89v-58q50 72 152 72q82 0 133.5 -50t51.5 -144v-323h-95v300q0 130 -110 130q-63 0 -94.5 -43t-31.5 -118v-269h-95z" />
    <glyph glyph-name="Omacron" unicode="&#x14c;" horiz-adv-x="762" 
d="M545 849v-69h-329v69h329zM381 714q140 0 233.5 -103t93.5 -261t-93.5 -261t-233.5 -103t-233.5 103t-93.5 261t93.5 261t233.5 103zM381 619q-100 0 -162.5 -75t-62.5 -194t62.5 -194t162.5 -75t162.5 75t62.5 194t-62.5 194t-162.5 75z" />
    <glyph glyph-name="omacron" unicode="&#x14d;" 
d="M456 649v-69h-329v69h329zM292 517q104 0 171 -74t67 -191t-67 -191.5t-171 -74.5t-171 74.5t-67 191.5t67 191t171 74zM292 430q-65 0 -103 -48t-38 -130q0 -83 38 -131t103 -48t103 48t38 131q0 82 -38 130t-103 48z" />
    <glyph glyph-name="Obreve" unicode="&#x14e;" horiz-adv-x="762" 
d="M515 900q0 -66 -34 -102t-100 -36q-63 0 -98.5 36.5t-35.5 101.5h72q0 -72 62 -72q30 0 46 16t16 56h72zM381 714q140 0 233.5 -103t93.5 -261t-93.5 -261t-233.5 -103t-233.5 103t-93.5 261t93.5 261t233.5 103zM381 619q-100 0 -162.5 -75t-62.5 -194t62.5 -194
t162.5 -75t162.5 75t62.5 194t-62.5 194t-162.5 75z" />
    <glyph glyph-name="obreve" unicode="&#x14f;" 
d="M426 700q0 -66 -34 -102t-100 -36q-63 0 -98.5 36.5t-35.5 101.5h72q0 -72 62 -72q30 0 46 16t16 56h72zM292 517q104 0 171 -74t67 -191t-67 -191.5t-171 -74.5t-171 74.5t-67 191.5t67 191t171 74zM292 430q-65 0 -103 -48t-38 -130q0 -83 38 -131t103 -48t103 48
t38 131q0 82 -38 130t-103 48z" />
    <glyph glyph-name="Ohungarumlaut" unicode="&#x150;" horiz-adv-x="762" 
d="M426 891l-131 -131h-87l88 131h130zM657 891l-131 -131h-87l88 131h130zM381 714q140 0 233.5 -103t93.5 -261t-93.5 -261t-233.5 -103t-233.5 103t-93.5 261t93.5 261t233.5 103zM381 619q-100 0 -162.5 -75t-62.5 -194t62.5 -194t162.5 -75t162.5 75t62.5 194
t-62.5 194t-162.5 75z" />
    <glyph glyph-name="ohungarumlaut" unicode="&#x151;" 
d="M337 691l-131 -131h-87l88 131h130zM568 691l-131 -131h-87l88 131h130zM292 517q104 0 171 -74t67 -191t-67 -191.5t-171 -74.5t-171 74.5t-67 191.5t67 191t171 74zM292 430q-65 0 -103 -48t-38 -130q0 -83 38 -131t103 -48t103 48t38 131q0 82 -38 130t-103 48z" />
    <glyph glyph-name="OE" unicode="&#x152;" horiz-adv-x="944" 
d="M892 607h-240v-196h223v-92h-223v-227h240v-92h-339v22q-72 -39 -159 -39q-147 0 -243.5 106.5t-96.5 260.5q0 155 96 261t244 106q88 0 159 -40v23h339v-93zM393 78q99 0 160 59v427q-61 58 -160 58q-116 0 -176 -77.5t-60 -194.5q0 -116 60 -194t176 -78z" />
    <glyph glyph-name="oe" unicode="&#x153;" horiz-adv-x="932" 
d="M883 213h-355q0 -2 -1 -7t-1 -8q9 -55 48 -91t102 -36q75 0 142 55l57 -65q-93 -75 -198 -75q-128 0 -199 93q-67 -93 -186 -93q-104 0 -171 74.5t-67 191.5t67 191t171 74q119 0 186 -93q69 93 186 93q97 0 158 -64.5t61 -177.5v-62zM664 432q-61 0 -96.5 -35.5
t-42.5 -88.5l3 -17h267q-2 65 -37 103t-94 38zM292 73q55 0 91 34.5t46 96.5q-3 22 -3 48q0 24 3 47q-10 62 -46 96.5t-91 34.5q-65 0 -103 -48t-38 -130q0 -83 38 -131t103 -48z" />
    <glyph glyph-name="Racute" unicode="&#x154;" horiz-adv-x="595" 
d="M442 891l-131 -131h-87l88 131h130zM595 0h-120l-234 279h-51v-279h-99v700h216q105 0 164.5 -60t59.5 -150q0 -79 -46.5 -136.5t-130.5 -70.5zM190 607v-235h101q72 0 106 32.5t34 85.5t-34 85t-106 32h-101z" />
    <glyph glyph-name="racute" unicode="&#x155;" horiz-adv-x="348" 
d="M335 691l-131 -131h-87l88 131h130zM327 507v-94h-44q-47 0 -75 -33t-28 -93v-287h-95v503h89v-74q45 78 127 78h26z" />
    <glyph glyph-name="Rcommaaccent" unicode="&#x156;" horiz-adv-x="604" 
d="M354 283l241 -283h-120l-234 279h-51v-279h-99v700h216q105 0 164.5 -60t59.5 -150q0 -79 -46.5 -136.5t-130.5 -70.5zM190 607v-235h101q72 0 106 32.5t34 85.5t-34 85t-106 32h-101zM265 -147v97h104v-97q0 -33 -17 -54t-57 -40l-27 33q51 19 51 48v13h-54z" />
    <glyph glyph-name="rcommaaccent" unicode="&#x157;" horiz-adv-x="357" 
d="M327 507v-94h-44q-47 0 -75 -33t-28 -93v-287h-95v503h89v-74q45 78 127 78h26zM190 -50v-97q0 -33 -17 -54t-57 -40l-27 33q51 19 51 48v13h-54v97h104z" />
    <glyph glyph-name="Rcaron" unicode="&#x158;" horiz-adv-x="595" 
d="M309 759h-58l-116 131h98l47 -57l47 57h98zM595 0h-120l-234 279h-51v-279h-99v700h216q105 0 164.5 -60t59.5 -150q0 -79 -46.5 -136.5t-130.5 -70.5zM190 607v-235h101q72 0 106 32.5t34 85.5t-34 85t-106 32h-101z" />
    <glyph glyph-name="rcaron" unicode="&#x159;" horiz-adv-x="348" 
d="M318 690l-116 -131h-58l-116 131h98l47 -57l47 57h98zM327 507v-94h-44q-47 0 -75 -33t-28 -93v-287h-95v503h89v-74q45 78 127 78h26z" />
    <glyph glyph-name="Sacute" unicode="&#x15a;" horiz-adv-x="559" 
d="M442 891l-131 -131h-87l88 131h130zM297 -14q-54 0 -104 18.5t-82.5 45.5t-52.5 50t-27 40l67 64q22 -40 79 -81.5t122 -41.5q56 0 86 31t30 74q0 38 -27 65t-83 57l-109 58q-117 65 -117 168q0 79 57.5 129.5t147.5 50.5q80 0 134.5 -37t97.5 -94l-67 -63
q-21 28 -39.5 46t-52 35.5t-71.5 17.5q-49 0 -77 -24.5t-28 -58.5q0 -30 22 -52t62 -43l105 -54q147 -75 147 -200q0 -83 -59.5 -142t-160.5 -59z" />
    <glyph glyph-name="sacute" unicode="&#x15b;" horiz-adv-x="443" 
d="M393 694l-131 -131h-87l88 131h130zM219 517q40 0 77 -18t55.5 -35t47.5 -49l-61 -56q-56 74 -119 74q-24 0 -41.5 -13t-17.5 -34q0 -23 15 -37.5t66 -40.5q74 -39 101 -63q52 -48 52 -112q0 -62 -45.5 -104.5t-118.5 -42.5q-107 0 -196 104l58 62q70 -81 137 -81
q31 0 52 16.5t21 45.5q0 8 -2.5 15.5t-6 13.5t-11.5 13.5t-14 12t-18 12t-19 11t-22.5 12t-22.5 12.5q-63 33 -90.5 66t-27.5 83q0 53 42.5 93t108.5 40z" />
    <glyph glyph-name="Scircumflex" unicode="&#x15c;" horiz-adv-x="559" 
d="M309 883l116 -131h-98l-47 57l-47 -57h-98l116 131h58zM297 -14q-54 0 -104 18.5t-82.5 45.5t-52.5 50t-27 40l67 64q22 -40 79 -81.5t122 -41.5q56 0 86 31t30 74q0 38 -27 65t-83 57l-109 58q-117 65 -117 168q0 79 57.5 129.5t147.5 50.5q80 0 134.5 -37t97.5 -94
l-67 -63q-21 28 -39.5 46t-52 35.5t-71.5 17.5q-49 0 -77 -24.5t-28 -58.5q0 -30 22 -52t62 -43l105 -54q147 -75 147 -200q0 -83 -59.5 -142t-160.5 -59z" />
    <glyph glyph-name="scircumflex" unicode="&#x15d;" horiz-adv-x="443" 
d="M260 686l116 -131h-98l-47 57l-47 -57h-98l116 131h58zM219 517q40 0 77 -18t55.5 -35t47.5 -49l-61 -56q-56 74 -119 74q-24 0 -41.5 -13t-17.5 -34q0 -23 15 -37.5t66 -40.5q74 -39 101 -63q52 -48 52 -112q0 -62 -45.5 -104.5t-118.5 -42.5q-107 0 -196 104l58 62
q70 -81 137 -81q31 0 52 16.5t21 45.5q0 8 -2.5 15.5t-6 13.5t-11.5 13.5t-14 12t-18 12t-19 11t-22.5 12t-22.5 12.5q-63 33 -90.5 66t-27.5 83q0 53 42.5 93t108.5 40z" />
    <glyph glyph-name="Scedilla" unicode="&#x15e;" horiz-adv-x="559" 
d="M297 -14q-54 0 -104 18.5t-82.5 45.5t-52.5 50t-27 40l67 64q22 -40 79 -81.5t122 -41.5q56 0 86 31t30 74q0 38 -27 65t-83 57l-109 58q-117 65 -117 168q0 79 57.5 129.5t147.5 50.5q80 0 134.5 -37t97.5 -94l-67 -63q-21 28 -39.5 46t-52 35.5t-71.5 17.5
q-49 0 -77 -24.5t-28 -58.5q0 -30 22 -52t62 -43l105 -54q147 -75 147 -200q0 -83 -59.5 -142t-160.5 -59zM335 -67l-72 -160l-104 44l108 116h68z" />
    <glyph glyph-name="scedilla" unicode="&#x15f;" horiz-adv-x="443" 
d="M219 517q40 0 77 -18t55.5 -35t47.5 -49l-61 -56q-56 74 -119 74q-24 0 -41.5 -13t-17.5 -34q0 -23 15 -37.5t66 -40.5q74 -39 101 -63q52 -48 52 -112q0 -62 -45.5 -104.5t-118.5 -42.5q-107 0 -196 104l58 62q70 -81 137 -81q31 0 52 16.5t21 45.5q0 8 -2.5 15.5
t-6 13.5t-11.5 13.5t-14 12t-18 12t-19 11t-22.5 12t-22.5 12.5q-63 33 -90.5 66t-27.5 83q0 53 42.5 93t108.5 40zM208 -67l-72 -160l-104 44l108 116h68z" />
    <glyph glyph-name="Scaron" unicode="&#x160;" horiz-adv-x="559" 
d="M425 890l-116 -131h-58l-116 131h98l47 -57l47 57h98zM297 -14q-54 0 -104 18.5t-82.5 45.5t-52.5 50t-27 40l67 64q22 -40 79 -81.5t122 -41.5q56 0 86 31t30 74q0 38 -27 65t-83 57l-109 58q-117 65 -117 168q0 79 57.5 129.5t147.5 50.5q80 0 134.5 -37t97.5 -94
l-67 -63q-21 28 -39.5 46t-52 35.5t-71.5 17.5q-49 0 -77 -24.5t-28 -58.5q0 -30 22 -52t62 -43l105 -54q147 -75 147 -200q0 -83 -59.5 -142t-160.5 -59z" />
    <glyph glyph-name="scaron" unicode="&#x161;" horiz-adv-x="443" 
d="M376 693l-116 -131h-58l-116 131h98l47 -57l47 57h98zM219 517q40 0 77 -18t55.5 -35t47.5 -49l-61 -56q-56 74 -119 74q-24 0 -41.5 -13t-17.5 -34q0 -23 15 -37.5t66 -40.5q74 -39 101 -63q52 -48 52 -112q0 -62 -45.5 -104.5t-118.5 -42.5q-107 0 -196 104l58 62
q70 -81 137 -81q31 0 52 16.5t21 45.5q0 8 -2.5 15.5t-6 13.5t-11.5 13.5t-14 12t-18 12t-19 11t-22.5 12t-22.5 12.5q-63 33 -90.5 66t-27.5 83q0 53 42.5 93t108.5 40z" />
    <glyph glyph-name="uni0162" unicode="&#x162;" horiz-adv-x="476" 
d="M441 700v-91h-154v-609h-99v609h-153v91h406zM278 -58l-72 -160l-104 44l108 116h68z" />
    <glyph glyph-name="uni0163" unicode="&#x163;" horiz-adv-x="335" 
d="M236 0q-63 0 -97.5 33t-34.5 116v267h-78v87h78v146h95v-146h104v-87h-104v-251q0 -48 15 -64.5t56 -16.5h31v-84h-65zM223 -67l-72 -160l-104 44l108 116h68z" />
    <glyph glyph-name="Tcaron" unicode="&#x164;" horiz-adv-x="476" 
d="M383 890l-116 -131h-58l-116 131h98l47 -57l47 57h98zM441 700v-91h-154v-609h-99v609h-153v91h406z" />
    <glyph glyph-name="tcaron" unicode="&#x165;" horiz-adv-x="335" 
d="M422 726v-107q0 -42 -16.5 -69.5t-55.5 -49.5l-27 33q49 25 49 73v13h-54v107h104zM236 0q-63 0 -97.5 33t-34.5 116v267h-78v87h78v146h95v-146h104v-87h-104v-251q0 -48 15 -64.5t56 -16.5h31v-84h-65z" />
    <glyph glyph-name="Tbar" unicode="&#x166;" horiz-adv-x="476" 
d="M441 609h-154v-184h115v-80h-115v-345h-99v345h-114v80h114v184h-153v91h406v-91z" />
    <glyph glyph-name="tbar" unicode="&#x167;" horiz-adv-x="418" 
d="M305 416h-104v-105h104v-82h-104v-64q0 -48 15 -64.5t56 -16.5h31v-84h-65q-63 0 -97.5 33t-34.5 116v80h-78v82h78v105h-78v87h78v146h95v-146h104v-87z" />
    <glyph glyph-name="Utilde" unicode="&#x168;" horiz-adv-x="680" 
d="M258 864q34 0 83 -20.5t79 -20.5q38 0 63 36l37 -35q-12 -30 -38.5 -51t-61.5 -21q-33 0 -79.5 19t-74.5 19q-40 0 -69 -38l-33 43q33 69 94 69zM599 700v-437q0 -134 -70 -205.5t-189 -71.5t-189 71.5t-70 205.5v437h99v-430q0 -189 160 -189t160 189v430h99z" />
    <glyph glyph-name="utilde" unicode="&#x169;" 
d="M204 677q34 0 83 -20.5t79 -20.5q38 0 63 36l37 -35q-12 -30 -38.5 -51t-61.5 -21q-33 0 -79.5 19t-74.5 19q-40 0 -69 -38l-33 43q33 69 94 69zM499 503v-503h-89v58q-50 -72 -152 -72q-82 0 -133.5 50t-51.5 144v323h95v-300q0 -130 110 -130q63 0 94.5 43t31.5 118
v269h95z" />
    <glyph glyph-name="Umacron" unicode="&#x16a;" horiz-adv-x="680" 
d="M504 836v-69h-329v69h329zM599 700v-437q0 -134 -70 -205.5t-189 -71.5t-189 71.5t-70 205.5v437h99v-430q0 -189 160 -189t160 189v430h99z" />
    <glyph glyph-name="umacron" unicode="&#x16b;" 
d="M450 649v-69h-329v69h329zM499 503v-503h-89v58q-50 -72 -152 -72q-82 0 -133.5 50t-51.5 144v323h95v-300q0 -130 110 -130q63 0 94.5 43t31.5 118v269h95z" />
    <glyph glyph-name="Ubreve" unicode="&#x16c;" horiz-adv-x="680" 
d="M474 887q0 -66 -34 -102t-100 -36q-63 0 -98.5 36.5t-35.5 101.5h72q0 -72 62 -72q30 0 46 16t16 56h72zM599 700v-437q0 -134 -70 -205.5t-189 -71.5t-189 71.5t-70 205.5v437h99v-430q0 -189 160 -189t160 189v430h99z" />
    <glyph glyph-name="ubreve" unicode="&#x16d;" 
d="M420 700q0 -66 -34 -102t-100 -36q-63 0 -98.5 36.5t-35.5 101.5h72q0 -72 62 -72q30 0 46 16t16 56h72zM499 503v-503h-89v58q-50 -72 -152 -72q-82 0 -133.5 50t-51.5 144v323h95v-300q0 -130 110 -130q63 0 94.5 43t31.5 118v269h95z" />
    <glyph glyph-name="Uring" unicode="&#x16e;" horiz-adv-x="680" 
d="M339 904q37 0 62.5 -25t25.5 -62t-25.5 -62t-62.5 -25t-62 25t-25 62t25 62t62 25zM339 859q-17 0 -29.5 -12.5t-12.5 -29.5q0 -18 12.5 -30.5t29.5 -12.5t29.5 12.5t12.5 30.5q0 17 -12.5 29.5t-29.5 12.5zM599 700v-437q0 -134 -70 -205.5t-189 -71.5t-189 71.5
t-70 205.5v437h99v-430q0 -189 160 -189t160 189v430h99z" />
    <glyph glyph-name="uring" unicode="&#x16f;" 
d="M285 717q37 0 62.5 -25t25.5 -62t-25.5 -62t-62.5 -25t-62 25t-25 62t25 62t62 25zM285 672q-17 0 -29.5 -13t-12.5 -29q0 -18 12.5 -30.5t29.5 -12.5t29.5 12.5t12.5 30.5q0 16 -12.5 29t-29.5 13zM499 503v-503h-89v58q-50 -72 -152 -72q-82 0 -133.5 50t-51.5 144v323
h95v-300q0 -130 110 -130q63 0 94.5 43t31.5 118v269h95z" />
    <glyph glyph-name="Uhungarumlaut" unicode="&#x170;" horiz-adv-x="680" 
d="M385 878l-131 -131h-87l88 131h130zM616 878l-131 -131h-87l88 131h130zM599 700v-437q0 -134 -70 -205.5t-189 -71.5t-189 71.5t-70 205.5v437h99v-430q0 -189 160 -189t160 189v430h99z" />
    <glyph glyph-name="uhungarumlaut" unicode="&#x171;" 
d="M331 691l-131 -131h-87l88 131h130zM562 691l-131 -131h-87l88 131h130zM499 503v-503h-89v58q-50 -72 -152 -72q-82 0 -133.5 50t-51.5 144v323h95v-300q0 -130 110 -130q63 0 94.5 43t31.5 118v269h95z" />
    <glyph glyph-name="Uogonek" unicode="&#x172;" horiz-adv-x="680" 
d="M500 700h99v-437q0 -104 -43 -171t-121 -92h18q-94 -45 -82 -90q6 -21 30 -24.5t57 11.5v-73q-40 -20 -85 -13t-66 45q-18 30 -8 66t46 64h-5q-119 0 -189 71.5t-70 205.5v437h99v-430q0 -189 160 -189t160 189v430z" />
    <glyph glyph-name="uogonek" unicode="&#x173;" 
d="M489 0q-94 -45 -82 -90q6 -21 30 -24.5t57 11.5v-73q-40 -20 -85 -13t-66 45q-21 34 -5 75t64 69h8v58q-50 -72 -152 -72q-82 0 -133.5 50t-51.5 144v323h95v-300q0 -130 110 -130q63 0 94.5 43t31.5 118v269h95v-503h-10z" />
    <glyph glyph-name="Wcircumflex" unicode="&#x174;" horiz-adv-x="922" 
d="M490 883l116 -131h-98l-47 57l-47 -57h-98l116 131h58zM917 700l-273 -700h-99l-84 215l-84 -215h-99l-273 700h107l216 -571l82 217l-138 354h107l82 -217l82 217h107l-138 -353l83 -218l215 571h107z" />
    <glyph glyph-name="wcircumflex" unicode="&#x175;" horiz-adv-x="763" 
d="M382 609l-47 -57h-98l116 131h58l116 -131h-98zM659 503h94l-211 -503h-96l-64 152l-64 -152h-96l-212 503h94l165 -391l65 153l-100 238h94l53 -126l54 126h94l-100 -239l64 -152z" />
    <glyph glyph-name="Ycircumflex" unicode="&#x176;" horiz-adv-x="527" 
d="M264 809l-47 -57h-98l116 131h58l116 -131h-98zM403 700h103l-282 -700h-100l104 261l-207 439h104l149 -321z" />
    <glyph glyph-name="ycircumflex" unicode="&#x177;" horiz-adv-x="524" 
d="M269 609l-47 -57h-98l116 131h58l116 -131h-98zM418 503h97l-244 -608q-48 -119 -164 -119h-36v88h40q24 0 46 13t31 36l34 87l-211 503h100l157 -384z" />
    <glyph glyph-name="Ydieresis" unicode="&#x178;" horiz-adv-x="527" 
d="M209 887v-105h-105v105h105zM423 887v-105h-105v105h105zM403 700h103l-282 -700h-100l104 261l-207 439h104l149 -321z" />
    <glyph glyph-name="Zacute" unicode="&#x179;" horiz-adv-x="513" 
d="M419 891l-131 -131h-87l88 131h130zM417 700v-86l-236 -521h256v-93h-369v82l235 525h-231v93h345z" />
    <glyph glyph-name="zacute" unicode="&#x17a;" horiz-adv-x="480" 
d="M405 691l-131 -131h-87l88 131h130zM414 503v-75l-243 -340h257v-88h-366v82l238 333h-218v88h332z" />
    <glyph glyph-name="Zdotaccent" unicode="&#x17b;" horiz-adv-x="513" 
d="M257 875q24 0 38.5 -14.5t14.5 -39.5q0 -23 -14.5 -37.5t-38.5 -14.5q-25 0 -39.5 14.5t-14.5 37.5q0 25 14.5 39.5t39.5 14.5zM417 700v-86l-236 -521h256v-93h-369v82l235 525h-231v93h345z" />
    <glyph glyph-name="zdotaccent" unicode="&#x17c;" horiz-adv-x="480" 
d="M243 675q24 0 38.5 -14.5t14.5 -39.5q0 -23 -14.5 -37.5t-38.5 -14.5q-25 0 -39.5 14.5t-14.5 37.5q0 25 14.5 39.5t39.5 14.5zM414 503v-75l-243 -340h257v-88h-366v82l238 333h-218v88h332z" />
    <glyph glyph-name="Zcaron" unicode="&#x17d;" horiz-adv-x="513" 
d="M402 890l-116 -131h-58l-116 131h98l47 -57l47 57h98zM417 700v-86l-236 -521h256v-93h-369v82l235 525h-231v93h345z" />
    <glyph glyph-name="zcaron" unicode="&#x17e;" horiz-adv-x="480" 
d="M388 690l-116 -131h-58l-116 131h98l47 -57l47 57h98zM414 503v-75l-243 -340h257v-88h-366v82l238 333h-218v88h332z" />
    <glyph glyph-name="florin" unicode="&#x192;" horiz-adv-x="454" 
d="M359 759v-88h-38q-59 0 -59 -79v-89h86v-88h-86v-474q0 -77 -38 -120t-97 -43h-57v88h38q59 0 59 79v470h-68v88h68v93q0 77 38 120t97 43h57z" />
    <glyph glyph-name="uni01CD" unicode="&#x1cd;" horiz-adv-x="555" 
d="M307 759h-58l-116 131h98l47 -57l47 57h98zM441 0l-34 113h-259l-34 -113h-101l220 700h89l220 -700h-101zM176 204h203l-101 335z" />
    <glyph glyph-name="uni01CE" unicode="&#x1ce;" horiz-adv-x="513" 
d="M399 693l-116 -131h-58l-116 131h98l47 -57l47 57h98zM262 517q22 0 43.5 -3.5t49 -14.5t48 -29.5t34.5 -52.5t14 -78v-339h-87v67q-27 -36 -72.5 -58.5t-99.5 -22.5q-64 0 -106 33.5t-42 98.5q0 69 48.5 111.5t138.5 67.5l125 35v14q0 43 -28.5 64.5t-67.5 21.5
q-73 0 -137 -76l-65 56q87 105 204 105zM356 251l-110 -31q-107 -30 -107 -93q0 -28 18.5 -42t45.5 -14q49 0 101 35.5t52 88.5v56z" />
    <glyph glyph-name="uni01CF" unicode="&#x1cf;" horiz-adv-x="485" 
d="M388 890l-116 -131h-58l-116 131h98l47 -57l47 57h98zM420 700v-91h-128v-518h128v-91h-355v91h128v518h-128v91h355z" />
    <glyph glyph-name="uni01D0" unicode="&#x1d0;" horiz-adv-x="265" 
d="M278 690l-116 -131h-58l-116 131h98l47 -57l47 57h98zM180 503v-503h-95v503h95z" />
    <glyph glyph-name="uni01D1" unicode="&#x1d1;" horiz-adv-x="762" 
d="M526 890l-116 -131h-58l-116 131h98l47 -57l47 57h98zM381 714q140 0 233.5 -103t93.5 -261t-93.5 -261t-233.5 -103t-233.5 103t-93.5 261t93.5 261t233.5 103zM381 619q-100 0 -162.5 -75t-62.5 -194t62.5 -194t162.5 -75t162.5 75t62.5 194t-62.5 194t-162.5 75z" />
    <glyph glyph-name="uni01D2" unicode="&#x1d2;" 
d="M437 690l-116 -131h-58l-116 131h98l47 -57l47 57h98zM292 517q104 0 171 -74t67 -191t-67 -191.5t-171 -74.5t-171 74.5t-67 191.5t67 191t171 74zM292 430q-65 0 -103 -48t-38 -130q0 -83 38 -131t103 -48t103 48t38 131q0 82 -38 130t-103 48z" />
    <glyph glyph-name="uni01D3" unicode="&#x1d3;" horiz-adv-x="680" 
d="M485 877l-116 -131h-58l-116 131h98l47 -57l47 57h98zM599 700v-437q0 -134 -70 -205.5t-189 -71.5t-189 71.5t-70 205.5v437h99v-430q0 -189 160 -189t160 189v430h99z" />
    <glyph glyph-name="uni01D4" unicode="&#x1d4;" 
d="M431 690l-116 -131h-58l-116 131h98l47 -57l47 57h98zM499 503v-503h-89v58q-50 -72 -152 -72q-82 0 -133.5 50t-51.5 144v323h95v-300q0 -130 110 -130q63 0 94.5 43t31.5 118v269h95z" />
    <glyph glyph-name="Scommaaccent" unicode="&#x218;" horiz-adv-x="600" 
d="M297 -14q-54 0 -104 18.5t-82.5 45.5t-52.5 50t-27 40l67 64q22 -40 79 -81.5t122 -41.5q56 0 86 31t30 74q0 38 -27 65t-83 57l-109 58q-117 65 -117 168q0 79 57.5 129.5t147.5 50.5q80 0 134.5 -37t97.5 -94l-67 -63q-21 28 -39.5 46t-52 35.5t-71.5 17.5
q-49 0 -77 -24.5t-28 -58.5q0 -30 22 -52t62 -43l105 -54q147 -75 147 -200q0 -83 -59.5 -142t-160.5 -59zM365 -58v-97q0 -33 -17 -54t-57 -40l-27 33q51 19 51 48v13h-54v97h104z" />
    <glyph glyph-name="scommaaccent" unicode="&#x219;" horiz-adv-x="492" 
d="M219 517q40 0 77 -18t55.5 -35t47.5 -49l-61 -56q-56 74 -119 74q-24 0 -41.5 -13t-17.5 -34q0 -23 15 -37.5t66 -40.5q74 -39 101 -63q52 -48 52 -112q0 -62 -45.5 -104.5t-118.5 -42.5q-107 0 -196 104l58 62q70 -81 137 -81q31 0 52 16.5t21 45.5q0 8 -2.5 15.5
t-6 13.5t-11.5 13.5t-14 12t-18 12t-19 11t-22.5 12t-22.5 12.5q-63 33 -90.5 66t-27.5 83q0 53 42.5 93t108.5 40zM318 -60v-97q0 -33 -17 -54t-57 -40l-27 33q51 19 51 48v13h-54v97h104z" />
    <glyph glyph-name="uni021A" unicode="&#x21a;" horiz-adv-x="476" 
d="M441 700v-91h-154v-609h-99v609h-153v91h406zM288 -50v-97q0 -33 -17 -54t-57 -40l-27 33q51 19 51 48v13h-54v97h104z" />
    <glyph glyph-name="uni021B" unicode="&#x21b;" horiz-adv-x="418" 
d="M236 0q-63 0 -97.5 33t-34.5 116v267h-78v87h78v146h95v-146h104v-87h-104v-251q0 -48 15 -64.5t56 -16.5h31v-84h-65zM306 -60v-97q0 -33 -17 -54t-57 -40l-27 33q51 19 51 48v13h-54v97h104z" />
    <glyph glyph-name="circumflex" unicode="&#x2c6;" horiz-adv-x="490" 
d="M261 683l116 -131h-98l-47 57l-47 -57h-98l116 131h58z" />
    <glyph glyph-name="caron" unicode="&#x2c7;" horiz-adv-x="464" 
d="M377 690l-116 -131h-58l-116 131h98l47 -57l47 57h98z" />
    <glyph glyph-name="breve" unicode="&#x2d8;" horiz-adv-x="426" 
d="M347 700q0 -66 -34 -102t-100 -36q-63 0 -98.5 36.5t-35.5 101.5h72q0 -72 62 -72q30 0 46 16t16 56h72z" />
    <glyph glyph-name="dotaccent" unicode="&#x2d9;" horiz-adv-x="307" 
d="M154 706q24 0 38.5 -14.5t14.5 -39.5q0 -23 -14.5 -37.5t-38.5 -14.5q-25 0 -39.5 14.5t-14.5 37.5q0 25 14.5 39.5t39.5 14.5z" />
    <glyph glyph-name="ring" unicode="&#x2da;" horiz-adv-x="335" 
d="M167 717q37 0 62.5 -25t25.5 -62t-25.5 -62t-62.5 -25t-62 25t-25 62t25 62t62 25zM167 672q-17 0 -29.5 -13t-12.5 -29q0 -18 12.5 -30.5t29.5 -12.5t29.5 12.5t12.5 30.5q0 16 -12.5 29t-29.5 13z" />
    <glyph glyph-name="ogonek" unicode="&#x2db;" horiz-adv-x="273" 
d="M221 0q-94 -45 -82 -90q6 -21 30 -24.5t57 11.5v-73q-40 -20 -85 -13t-66 45q-21 34 -5 75t64 69h87z" />
    <glyph glyph-name="tilde" unicode="&#x2dc;" horiz-adv-x="504" 
d="M168 677q34 0 83 -20.5t79 -20.5q38 0 63 36l37 -35q-12 -30 -38.5 -51t-61.5 -21q-33 0 -79.5 19t-74.5 19q-40 0 -69 -38l-33 43q33 69 94 69z" />
    <glyph glyph-name="hungarumlaut" unicode="&#x2dd;" horiz-adv-x="589" 
d="M308 691l-131 -131h-87l88 131h130zM539 691l-131 -131h-87l88 131h130z" />
    <glyph glyph-name="pi" unicode="&#x3c0;" horiz-adv-x="639" 
d="M594 503v-88h-80v-415h-95v415h-197v-415h-95v415h-82v88h549z" />
    <glyph glyph-name="Wgrave" unicode="&#x1e80;" horiz-adv-x="922" 
d="M432 891l88 -131h-87l-131 131h130zM917 700l-273 -700h-99l-84 215l-84 -215h-99l-273 700h107l216 -571l82 217l-138 354h107l82 -217l82 217h107l-138 -353l83 -218l215 571h107z" />
    <glyph glyph-name="wgrave" unicode="&#x1e81;" horiz-adv-x="763" 
d="M441 560h-87l-131 131h130zM659 503h94l-211 -503h-96l-64 152l-64 -152h-96l-212 503h94l165 -391l65 153l-100 238h94l53 -126l54 126h94l-100 -239l64 -152z" />
    <glyph glyph-name="Wacute" unicode="&#x1e82;" horiz-adv-x="922" 
d="M623 891l-131 -131h-87l88 131h130zM917 700l-273 -700h-99l-84 215l-84 -215h-99l-273 700h107l216 -571l82 217l-138 354h107l82 -217l82 217h107l-138 -353l83 -218l215 571h107z" />
    <glyph glyph-name="wacute" unicode="&#x1e83;" horiz-adv-x="763" 
d="M544 691l-131 -131h-87l88 131h130zM659 503h94l-211 -503h-96l-64 152l-64 -152h-96l-212 503h94l165 -391l65 153l-100 238h94l53 -126l54 126h94l-100 -239l64 -152z" />
    <glyph glyph-name="Wdieresis" unicode="&#x1e84;" horiz-adv-x="922" 
d="M406 887v-105h-105v105h105zM620 887v-105h-105v105h105zM917 700l-273 -700h-99l-84 215l-84 -215h-99l-273 700h107l216 -571l82 217l-138 354h107l82 -217l82 217h107l-138 -353l83 -218l215 571h107z" />
    <glyph glyph-name="wdieresis" unicode="&#x1e85;" horiz-adv-x="763" 
d="M327 687v-105h-105v105h105zM541 687v-105h-105v105h105zM659 503h94l-211 -503h-96l-64 152l-64 -152h-96l-212 503h94l165 -391l65 153l-100 238h94l53 -126l54 126h94l-100 -239l64 -152z" />
    <glyph glyph-name="Ygrave" unicode="&#x1ef2;" horiz-adv-x="527" 
d="M323 760h-87l-131 131h130zM403 700h103l-282 -700h-100l104 261l-207 439h104l149 -321z" />
    <glyph glyph-name="ygrave" unicode="&#x1ef3;" horiz-adv-x="524" 
d="M328 560h-87l-131 131h130zM418 503h97l-244 -608q-48 -119 -164 -119h-36v88h40q24 0 46 13t31 36l34 87l-211 503h100l157 -384z" />
    <glyph glyph-name="endash" unicode="&#x2013;" horiz-adv-x="564" 
d="M519 338v-80h-474v80h474z" />
    <glyph glyph-name="emdash" unicode="&#x2014;" horiz-adv-x="712" 
d="M667 338v-80h-622v80h622z" />
    <glyph glyph-name="quoteleft" unicode="&#x2018;" horiz-adv-x="194" 
d="M45 489v107q0 42 16.5 69.5t55.5 49.5l27 -33q-49 -25 -49 -73v-13h54v-107h-104z" />
    <glyph glyph-name="quoteright" unicode="&#x2019;" horiz-adv-x="194" 
d="M149 700v-107q0 -42 -16.5 -69.5t-55.5 -49.5l-27 33q49 25 49 73v13h-54v107h104z" />
    <glyph glyph-name="quotesinglbase" unicode="&#x201a;" horiz-adv-x="214" 
d="M154 107v-107q0 -42 -16.5 -69.5t-55.5 -49.5l-27 33q49 25 49 73v13h-54v107h104z" />
    <glyph glyph-name="quotedblleft" unicode="&#x201c;" horiz-adv-x="397" 
d="M45 489v107q0 42 16.5 69.5t55.5 49.5l27 -33q-49 -25 -49 -73v-13h54v-107h-104zM248 489v107q0 42 16.5 69.5t55.5 49.5l27 -33q-49 -25 -49 -73v-13h54v-107h-104z" />
    <glyph glyph-name="quotedblright" unicode="&#x201d;" horiz-adv-x="397" 
d="M149 700v-107q0 -42 -16.5 -69.5t-55.5 -49.5l-27 33q49 25 49 73v13h-54v107h104zM352 700v-107q0 -42 -16.5 -69.5t-55.5 -49.5l-27 33q49 25 49 73v13h-54v107h104z" />
    <glyph glyph-name="quotedblbase" unicode="&#x201e;" horiz-adv-x="397" 
d="M149 107v-107q0 -42 -16.5 -69.5t-55.5 -49.5l-27 33q49 25 49 73v13h-54v107h104zM352 107v-107q0 -42 -16.5 -69.5t-55.5 -49.5l-27 33q49 25 49 73v13h-54v107h104z" />
    <glyph glyph-name="dagger" unicode="&#x2020;" horiz-adv-x="663" 
d="M373 759v-168h210v-80h-210v-674h-83v674h-210v80h210v168h83z" />
    <glyph glyph-name="daggerdbl" unicode="&#x2021;" horiz-adv-x="663" 
d="M373 759v-168h210v-80h-210v-335h210v-80h-210v-259h-83v259h-210v80h210v335h-210v80h210v168h83z" />
    <glyph glyph-name="bullet" unicode="&#x2022;" horiz-adv-x="426" 
d="M213 476q45 0 76.5 -32t31.5 -77t-31.5 -76t-76.5 -31t-76.5 31t-31.5 76t31.5 77t76.5 32z" />
    <glyph glyph-name="ellipsis" unicode="&#x2026;" horiz-adv-x="862" 
d="M229 107v-107h-104v107h104zM483 107v-107h-104v107h104zM737 107v-107h-104v107h104z" />
    <glyph glyph-name="perthousand" unicode="&#x2030;" horiz-adv-x="1173" 
d="M656 751l73 -41l-433 -751l-73 41zM420 538q0 -71 -49.5 -120.5t-120.5 -49.5t-120.5 49.5t-49.5 120.5q0 72 49.5 121.5t120.5 49.5t120.5 -49.5t49.5 -121.5zM168 538q0 -34 24 -58t58 -24q35 0 59.5 24t24.5 58q0 35 -24.5 59.5t-59.5 24.5q-34 0 -58 -24.5t-24 -59.5
zM947 322q72 0 121.5 -49.5t49.5 -120.5t-49.5 -120.5t-121.5 -49.5q-76 0 -126 55q-50 -55 -127 -55q-71 0 -120.5 49.5t-49.5 120.5t49.5 120.5t120.5 49.5q77 0 127 -55q50 55 126 55zM694 68q35 0 59 24.5t24 59.5q0 34 -24.5 58.5t-58.5 24.5t-58.5 -24.5t-24.5 -58.5
q0 -35 24 -59.5t59 -24.5zM947 68q35 0 59 24.5t24 59.5q0 34 -24 58.5t-59 24.5q-31 0 -54.5 -20.5t-27.5 -51.5v-11v-11q4 -31 27 -52t55 -21z" />
    <glyph glyph-name="guilsinglleft" unicode="&#x2039;" horiz-adv-x="391" 
d="M259 534l47 -36l-122 -199l122 -199l-47 -36l-174 235z" />
    <glyph glyph-name="guilsinglright" unicode="&#x203a;" horiz-adv-x="391" 
d="M132 534l174 -235l-174 -235l-47 36l122 199l-122 199z" />
    <glyph glyph-name="uni2042" unicode="&#x2042;" horiz-adv-x="941" 
d="M503 736l-4 -122l118 46l26 -72l-118 -40l82 -103l-61 -47l-81 114l-82 -114l-61 47l83 103l-119 40l26 72l118 -46l-4 122h77zM272 347l-4 -122l118 46l26 -72l-118 -40l82 -103l-61 -47l-81 114l-82 -114l-61 47l83 103l-119 40l26 72l118 -46l-4 122h77zM746 347
l-4 -122l118 46l26 -72l-118 -40l82 -103l-61 -47l-81 114l-82 -114l-61 47l83 103l-119 40l26 72l118 -46l-4 122h77z" />
    <glyph glyph-name="fraction" unicode="&#x2044;" horiz-adv-x="600" 
d="M512 751l73 -41l-433 -751l-73 41z" />
    <glyph glyph-name="Euro" unicode="&#x20ac;" horiz-adv-x="703" 
d="M543 161l74 -57q-27 -56 -77.5 -88.5t-119.5 -32.5q-91 0 -159 60.5t-95 168.5h-73l24 80h37q-2 30 -2 46v23h-58l24 80h41q20 131 88 203.5t173 72.5q99 0 169 -67l-36 -85q-53 57 -133 57q-132 0 -157 -181h250l-24 -80h-233v-24q0 -15 2 -45h212l-24 -80h-174
q40 -135 148 -135q36 0 71 20.5t52 63.5z" />
    <glyph glyph-name="uni2113" unicode="&#x2113;" horiz-adv-x="421" 
d="M220 72q24 0 55 26l52 -56q-48 -56 -116 -56q-126 0 -126 152v106q-25 -12 -44 -18l-24 82q38 13 68 27v282q0 72 40 111t107 39q134 0 134 -169q0 -178 -186 -302v-168q0 -56 40 -56zM180 399q93 87 93 207q0 76 -47 76q-46 0 -46 -66v-217z" />
    <glyph glyph-name="uni2116" unicode="&#x2116;" horiz-adv-x="1090" 
d="M880 714q-68 0 -116.5 -48.5t-48.5 -116.5t48.5 -117t116.5 -49t116.5 49t48.5 117t-48.5 116.5t-116.5 48.5zM613 700v-700h-107l-316 531v-531h-99v700h104l319 -527v527h99zM880 634q34 0 59.5 -25t25.5 -60t-25 -60.5t-60 -25.5t-60 25.5t-25 60.5t25.5 60t59.5 25z
M1041 301v-76h-322v76h322z" />
    <glyph glyph-name="trademark" unicode="&#x2122;" horiz-adv-x="643" 
d="M228 700v-59h-74v-291h-70v291h-74v59h218zM633 700v-350h-70v269l-70 -165h-66l-69 165v-269h-70v350h105l67 -164l63 164h110z" />
    <glyph glyph-name="uni2126" unicode="&#x2126;" horiz-adv-x="802" 
d="M401 717q141 0 231 -95t90 -227q0 -53 -19 -101.5t-48.5 -82.5t-57.5 -56.5t-53 -33.5v-28h163v-93h-256v143q168 75 168 252q0 31 -7 61.5t-24 61t-41.5 53.5t-62 37t-83.5 14t-83.5 -14t-62 -37t-41.5 -53.5t-24 -61t-7 -61.5q0 -178 168 -252v-143h-256v93h163v28
q-25 11 -53 33.5t-57.5 56.5t-48.5 82.5t-19 101.5q0 132 90 227t231 95z" />
    <glyph glyph-name="arrowleft" unicode="&#x2190;" horiz-adv-x="864" 
d="M293 505l56 -56l-128 -122h568v-78l-567 -1l127 -122l-56 -56l-218 218z" />
    <glyph glyph-name="arrowup" unicode="&#x2191;" horiz-adv-x="585" 
d="M292 714l218 -218l-56 -56l-122 127l-1 -567h-78v568l-122 -128l-56 56z" />
    <glyph glyph-name="arrowright" unicode="&#x2192;" horiz-adv-x="864" 
d="M571 505l218 -217l-218 -218l-56 56l127 122l-567 1v78h568l-128 122z" />
    <glyph glyph-name="arrowdown" unicode="&#x2193;" horiz-adv-x="585" 
d="M292 -14l-217 218l56 56l122 -128v568h78l1 -567l122 127l56 -56z" />
    <glyph glyph-name="arrowboth" unicode="&#x2194;" horiz-adv-x="878" 
d="M803 351l-218 -218l-56 56l127 122l-435 1l128 -123l-56 -56l-218 218l218 217l56 -56l-128 -122h436l-128 122l56 56z" />
    <glyph glyph-name="arrowupdn" unicode="&#x2195;" horiz-adv-x="585" 
d="M292 714l218 -218l-56 -56l-122 127l-1 -435l123 128l56 -56l-218 -218l-217 218l56 56l122 -128v436l-122 -128l-56 56z" />
    <glyph glyph-name="uni2196" unicode="&#x2196;" horiz-adv-x="683" 
d="M384 700v-80l-177 4l401 -402l-55 -55l-403 403l5 -178h-79l-1 308h309z" />
    <glyph glyph-name="uni2197" unicode="&#x2197;" horiz-adv-x="683" 
d="M608 700l-1 -308h-79l5 178l-403 -403l-55 55l401 402l-177 -4v80h309z" />
    <glyph glyph-name="uni2198" unicode="&#x2198;" horiz-adv-x="683" 
d="M130 533l403 -403l-5 178h79l1 -308h-309v80l177 -4l-401 402z" />
    <glyph glyph-name="uni2199" unicode="&#x2199;" horiz-adv-x="683" 
d="M553 533l55 -55l-401 -402l177 4v-80h-309l1 308h79l-5 -178z" />
    <glyph glyph-name="partialdiff" unicode="&#x2202;" horiz-adv-x="604" 
d="M309 717q67 0 116 -30t74 -82t36.5 -110t11.5 -127q0 -100 -22.5 -176t-62 -120t-86.5 -65t-102 -21q-97 0 -155.5 63t-58.5 176q0 134 78 213t180 79q87 0 135 -71q-10 181 -159 181q-46 0 -80.5 -16.5t-74.5 -49.5l-60 57q111 99 230 99zM322 430q-61 0 -109 -52
t-48 -147q0 -69 28 -109.5t81 -40.5q65 0 112 55t47 141q0 63 -27 108t-84 45z" />
    <glyph glyph-name="uni2206" unicode="&#x2206;" horiz-adv-x="759" 
d="M439 700l280 -700h-679l279 700h120zM379 588l-197 -495h395z" />
    <glyph glyph-name="product" unicode="&#x220f;" horiz-adv-x="621" 
d="M516 700v-700h-95v611h-221v-611h-95v700h411z" />
    <glyph glyph-name="summation" unicode="&#x2211;" horiz-adv-x="592" 
d="M514 700v-93h-292l128 -233v-46l-129 -235h293v-93h-417v72l156 278l-156 281v69h417z" />
    <glyph glyph-name="minus" unicode="&#x2212;" horiz-adv-x="683" 
d="M616 329v-80h-543v80h543z" />
    <glyph glyph-name="radical" unicode="&#x221a;" horiz-adv-x="768" 
d="M581 676l85 -29l-227 -647h-87l-126 277h-151v81h214l101 -225z" />
    <glyph glyph-name="infinity" unicode="&#x221e;" horiz-adv-x="859" 
d="M618 465q80 0 133 -51t53 -124q0 -74 -53 -125t-133 -51q-96 0 -189 105q-91 -105 -188 -105q-80 0 -133 51t-53 125q0 73 53 124t133 51q98 0 189 -106q89 106 188 106zM241 198q74 0 136 92q-62 90 -136 90q-46 0 -74 -26t-28 -64q0 -40 28 -66t74 -26zM618 198
q46 0 74 26t28 66q0 38 -28 64t-74 26q-74 0 -136 -90q62 -92 136 -92z" />
    <glyph glyph-name="integral" unicode="&#x222b;" horiz-adv-x="459" 
d="M355 759v-88h-38q-59 0 -59 -79v-651q0 -77 -38 -120t-97 -43h-57v88h38q59 0 59 79v651q0 77 38 120t97 43h57z" />
    <glyph glyph-name="approxequal" unicode="&#x2248;" horiz-adv-x="715" 
d="M248 466q40 0 97 -31t91 -31q61 0 103 44l50 -39q-19 -37 -62 -64t-89 -27q-40 0 -99.5 29.5t-90.5 29.5q-63 0 -99 -39l-44 45q19 33 58.5 58t84.5 25zM252 257q40 0 97 -31t91 -31q61 0 103 44l50 -39q-19 -37 -62 -64t-89 -27q-40 0 -99.5 29.5t-90.5 29.5
q-63 0 -99 -39l-44 45q19 33 58.5 58t84.5 25z" />
    <glyph glyph-name="notequal" unicode="&#x2260;" horiz-adv-x="723" 
d="M643 350h-191l-86 -122h277v-75h-329l-96 -137l-71 47l63 90h-130v75h183l85 122h-268v75h320l95 135l70 -48l-61 -87h139v-75z" />
    <glyph glyph-name="lessequal" unicode="&#x2264;" horiz-adv-x="602" 
d="M547 674v-89l-381 -164l381 -164v-89l-491 214v78zM55 0v80h491v-80h-491z" />
    <glyph glyph-name="greaterequal" unicode="&#x2265;" horiz-adv-x="723" 
d="M570 382l-491 -214v89l381 164l-381 164v89l491 -214v-78zM80 80h491v-80h-491v80z" />
    <glyph glyph-name="lozenge" unicode="&#x25ca;" horiz-adv-x="593" 
d="M330 699l208 -348l-210 -351h-64l-209 351l207 348h68zM296 587l-141 -236l141 -235l142 235z" />
    <glyph glyph-name="uniF8FF" unicode="&#xf8ff;" horiz-adv-x="884" 
d="M793 700v-700h-702v700h702zM728 634h-572v-568h572v568zM361 507q62 0 103.5 -44t41.5 -111t-41.5 -111.5t-103.5 -44.5t-103 44.5t-41 111.5t41 111t103 44zM361 450q-37 0 -58 -26.5t-21 -71.5t21 -71t58 -26q38 0 59 26t21 71t-21 71.5t-59 26.5zM675 431v-60h-21
q-20 0 -32.5 -14.5t-12.5 -40.5v-111h-58v224h55v-31q20 33 56 33h13z" />
    <glyph glyph-name="I.alt" horiz-adv-x="281" 
d="M190 700v-700h-99v700h99z" />
    <glyph glyph-name="Adieresis.ss02" horiz-adv-x="555" 
d="M174 777q-28 0 -45.5 17.5t-17.5 43.5q0 28 17.5 45.5t45.5 17.5t45 -17.5t17 -45.5q0 -26 -17 -43.5t-45 -17.5zM382 777q-28 0 -45.5 17t-17.5 44q0 28 17.5 45.5t45.5 17.5q27 0 44.5 -17.5t17.5 -45.5q0 -26 -17.5 -43.5t-44.5 -17.5zM441 0l-34 113h-259l-34 -113
h-101l220 700h89l220 -700h-101zM176 204h203l-101 335z" />
    <glyph glyph-name="Odieresis.ss02" horiz-adv-x="762" 
d="M277 901q28 0 45 -17.5t17 -45.5q0 -26 -17.5 -43.5t-44.5 -17.5q-28 0 -45.5 17.5t-17.5 43.5q0 28 17.5 45.5t45.5 17.5zM485 901q27 0 44.5 -17.5t17.5 -45.5q0 -26 -17.5 -43.5t-44.5 -17.5q-28 0 -45.5 17t-17.5 44q0 28 17 45.5t46 17.5zM381 714q140 0 233.5 -103
t93.5 -261t-93.5 -261t-233.5 -103t-233.5 103t-93.5 261t93.5 261t233.5 103zM381 619q-100 0 -162.5 -75t-62.5 -194t62.5 -194t162.5 -75t162.5 75t62.5 194t-62.5 194t-162.5 75z" />
    <glyph glyph-name="Udieresis.ss02" horiz-adv-x="680" 
d="M236 888q28 0 45 -17.5t17 -45.5q0 -27 -17 -44t-45 -17t-45.5 17.5t-17.5 43.5q0 28 17.5 45.5t45.5 17.5zM444 888q27 0 44.5 -17.5t17.5 -45.5q0 -26 -17.5 -43.5t-44.5 -17.5q-28 0 -45.5 17t-17.5 44q0 29 17.5 46t45.5 17zM599 700v-437q0 -134 -70 -205.5
t-189 -71.5t-189 71.5t-70 205.5v437h99v-430q0 -189 160 -189t160 189v430h99z" />
    <glyph glyph-name="Wdieresis.ss02" horiz-adv-x="922" 
d="M357 901q28 0 45 -17.5t17 -45.5q0 -26 -17.5 -43.5t-44.5 -17.5q-28 0 -45.5 17.5t-17.5 43.5q0 28 17.5 45.5t45.5 17.5zM565 901q27 0 44.5 -17.5t17.5 -45.5q0 -26 -17.5 -43.5t-44.5 -17.5q-28 0 -45.5 17t-17.5 44q0 28 17 45.5t46 17.5zM917 700l-273 -700h-99
l-84 215l-84 -215h-99l-273 700h107l216 -571l82 217l-138 354h107l82 -217l82 217h107l-138 -353l83 -218l215 571h107z" />
    <glyph glyph-name="Ydieresis.ss02" horiz-adv-x="527" 
d="M160 777q-28 0 -45.5 17.5t-17.5 43.5q0 28 17.5 45.5t45.5 17.5t45 -17.5t17 -45.5q0 -26 -17 -43.5t-45 -17.5zM368 777q-28 0 -45.5 17t-17.5 44q0 28 17.5 45.5t45.5 17.5q27 0 44.5 -17.5t17.5 -45.5q0 -26 -17.5 -43.5t-44.5 -17.5zM403 700h103l-282 -700h-100
l104 261l-207 439h104l149 -321z" />
    <glyph glyph-name="i.loclTRK" horiz-adv-x="265" 
d="M133 675q24 0 38.5 -14.5t14.5 -39.5q0 -23 -14.5 -37.5t-38.5 -14.5q-25 0 -39.5 14.5t-14.5 37.5q0 25 14.5 39.5t39.5 14.5zM180 503v-503h-95v503h95z" />
    <glyph glyph-name="a.ss01" horiz-adv-x="606" 
d="M280 -14q-97 0 -161.5 75t-64.5 191t64.5 190.5t161.5 74.5q88 0 146 -61v47h95v-503h-90v52q-58 -66 -151 -66zM291 74q65 0 102.5 47.5t37.5 130.5t-37.5 130.5t-102.5 47.5t-102.5 -47.5t-37.5 -130.5t37.5 -130.5t102.5 -47.5z" />
    <glyph glyph-name="aacute.ss01" horiz-adv-x="606" 
d="M432 694l-131 -131h-87l88 131h130zM280 -14q-97 0 -161.5 75t-64.5 191t64.5 190.5t161.5 74.5q88 0 146 -61v47h95v-503h-90v52q-58 -66 -151 -66zM291 74q65 0 102.5 47.5t37.5 130.5t-37.5 130.5t-102.5 47.5t-102.5 -47.5t-37.5 -130.5t37.5 -130.5t102.5 -47.5z
" />
    <glyph glyph-name="abreve.ss01" horiz-adv-x="606" 
d="M433 703q0 -66 -34 -102t-100 -36q-63 0 -98.5 36.5t-35.5 101.5h72q0 -72 62 -72q30 0 46 16t16 56h72zM280 -14q-97 0 -161.5 75t-64.5 191t64.5 190.5t161.5 74.5q88 0 146 -61v47h95v-503h-90v52q-58 -66 -151 -66zM291 74q65 0 102.5 47.5t37.5 130.5t-37.5 130.5
t-102.5 47.5t-102.5 -47.5t-37.5 -130.5t37.5 -130.5t102.5 -47.5z" />
    <glyph glyph-name="uni01CE.ss01" horiz-adv-x="606" 
d="M444 693l-116 -131h-58l-116 131h98l47 -57l47 57h98zM280 -14q-97 0 -161.5 75t-64.5 191t64.5 190.5t161.5 74.5q88 0 146 -61v47h95v-503h-90v52q-58 -66 -151 -66zM291 74q65 0 102.5 47.5t37.5 130.5t-37.5 130.5t-102.5 47.5t-102.5 -47.5t-37.5 -130.5
t37.5 -130.5t102.5 -47.5z" />
    <glyph glyph-name="acircumflex.ss01" horiz-adv-x="606" 
d="M328 686l116 -131h-98l-47 57l-47 -57h-98l116 131h58zM280 -14q-97 0 -161.5 75t-64.5 191t64.5 190.5t161.5 74.5q88 0 146 -61v47h95v-503h-90v52q-58 -66 -151 -66zM291 74q65 0 102.5 47.5t37.5 130.5t-37.5 130.5t-102.5 47.5t-102.5 -47.5t-37.5 -130.5
t37.5 -130.5t102.5 -47.5z" />
    <glyph glyph-name="adieresis.ss01" horiz-adv-x="606" 
d="M244 690v-105h-105v105h105zM458 690v-105h-105v105h105zM280 -14q-97 0 -161.5 75t-64.5 191t64.5 190.5t161.5 74.5q88 0 146 -61v47h95v-503h-90v52q-58 -66 -151 -66zM291 74q65 0 102.5 47.5t37.5 130.5t-37.5 130.5t-102.5 47.5t-102.5 -47.5t-37.5 -130.5
t37.5 -130.5t102.5 -47.5z" />
    <glyph glyph-name="agrave.ss01" horiz-adv-x="606" 
d="M270 694l88 -131h-87l-131 131h130zM280 -14q-97 0 -161.5 75t-64.5 191t64.5 190.5t161.5 74.5q88 0 146 -61v47h95v-503h-90v52q-58 -66 -151 -66zM291 74q65 0 102.5 47.5t37.5 130.5t-37.5 130.5t-102.5 47.5t-102.5 -47.5t-37.5 -130.5t37.5 -130.5t102.5 -47.5z
" />
    <glyph glyph-name="amacron.ss01" horiz-adv-x="606" 
d="M463 652v-69h-329v69h329zM280 -14q-97 0 -161.5 75t-64.5 191t64.5 190.5t161.5 74.5q88 0 146 -61v47h95v-503h-90v52q-58 -66 -151 -66zM291 74q65 0 102.5 47.5t37.5 130.5t-37.5 130.5t-102.5 47.5t-102.5 -47.5t-37.5 -130.5t37.5 -130.5t102.5 -47.5z" />
    <glyph glyph-name="aogonek.ss01" horiz-adv-x="603" 
d="M515 0q-94 -45 -82 -90q6 -21 30 -24.5t57 11.5v-73q-40 -20 -85 -13t-66 45q-21 34 -5 75t64 69h3v52q-58 -66 -151 -66q-97 0 -161.5 75t-64.5 191t64.5 190.5t161.5 74.5q88 0 146 -61v47h95v-503h-6zM291 74q65 0 102.5 47.5t37.5 130.5t-37.5 130.5t-102.5 47.5
t-102.5 -47.5t-37.5 -130.5t37.5 -130.5t102.5 -47.5z" />
    <glyph glyph-name="aring.ss01" horiz-adv-x="606" 
d="M298 720q37 0 62.5 -25t25.5 -62t-25.5 -62t-62.5 -25t-62 25t-25 62t25 62t62 25zM298 675q-16 0 -29 -12.5t-13 -29.5q0 -18 12.5 -30.5t29.5 -12.5t29.5 12.5t12.5 30.5q0 17 -13 29.5t-29 12.5zM280 -14q-97 0 -161.5 75t-64.5 191t64.5 190.5t161.5 74.5
q88 0 146 -61v47h95v-503h-90v52q-58 -66 -151 -66zM291 74q65 0 102.5 47.5t37.5 130.5t-37.5 130.5t-102.5 47.5t-102.5 -47.5t-37.5 -130.5t37.5 -130.5t102.5 -47.5z" />
    <glyph glyph-name="atilde.ss01" horiz-adv-x="606" 
d="M203 680q34 0 83 -20.5t79 -20.5q38 0 63 36l37 -35q-12 -30 -38.5 -51t-61.5 -21q-33 0 -79.5 19t-74.5 19q-40 0 -69 -38l-33 43q33 69 94 69zM280 -14q-97 0 -161.5 75t-64.5 191t64.5 190.5t161.5 74.5q88 0 146 -61v47h95v-503h-90v52q-58 -66 -151 -66zM291 74
q65 0 102.5 47.5t37.5 130.5t-37.5 130.5t-102.5 47.5t-102.5 -47.5t-37.5 -130.5t37.5 -130.5t102.5 -47.5z" />
    <glyph glyph-name="y.ss01" horiz-adv-x="524" 
d="M418 503h97l-291 -725h-89l87 223l-211 502h100l157 -384z" />
    <glyph glyph-name="yacute.ss01" horiz-adv-x="524" 
d="M431 691l-131 -131h-87l88 131h130zM418 503h97l-291 -725h-89l87 223l-211 502h100l157 -384z" />
    <glyph glyph-name="ycircumflex.ss01" horiz-adv-x="524" 
d="M269 609l-47 -57h-98l116 131h58l116 -131h-98zM418 503h97l-291 -725h-89l87 223l-211 502h100l157 -384z" />
    <glyph glyph-name="ydieresis.ss01" horiz-adv-x="524" 
d="M214 687v-105h-105v105h105zM428 687v-105h-105v105h105zM418 503h97l-291 -725h-89l87 223l-211 502h100l157 -384z" />
    <glyph glyph-name="ygrave.ss01" horiz-adv-x="524" 
d="M328 560h-87l-131 131h130zM418 503h97l-291 -725h-89l87 223l-211 502h100l157 -384z" />
    <glyph glyph-name="adieresis.ss02" horiz-adv-x="513" 
d="M150 704q28 0 45 -17.5t17 -45.5q0 -27 -17 -44t-45 -17t-45.5 17.5t-17.5 43.5q0 28 17.5 45.5t45.5 17.5zM358 704q27 0 44.5 -17.5t17.5 -45.5q0 -26 -17.5 -43.5t-44.5 -17.5q-28 0 -45.5 17t-17.5 44q0 29 17.5 46t45.5 17zM262 517q22 0 43.5 -3.5t49 -14.5
t48 -29.5t34.5 -52.5t14 -78v-339h-87v67q-27 -36 -72.5 -58.5t-99.5 -22.5q-64 0 -106 33.5t-42 98.5q0 69 48.5 111.5t138.5 67.5l125 35v14q0 43 -28.5 64.5t-67.5 21.5q-73 0 -137 -76l-65 56q87 105 204 105zM356 251l-110 -31q-107 -30 -107 -93q0 -28 18.5 -42
t45.5 -14q49 0 101 35.5t52 88.5v56z" />
    <glyph glyph-name="edieresis.ss02" horiz-adv-x="560" 
d="M177 704q28 0 45 -17.5t17 -45.5q0 -27 -17.5 -44t-44.5 -17q-28 0 -45.5 17.5t-17.5 43.5q0 28 17.5 45.5t45.5 17.5zM385 704q27 0 44.5 -17.5t17.5 -45.5q0 -26 -17.5 -43.5t-44.5 -17.5q-28 0 -45.5 17t-17.5 44q0 29 17 46t46 17zM305 -14q-113 0 -182 73.5
t-69 192.5q0 115 67 190t171 75q97 0 158 -64.5t61 -177.5v-62h-359q5 -60 44.5 -101t107.5 -41q75 0 142 55l57 -65q-93 -75 -198 -75zM152 291h271q-2 65 -37 103t-94 38q-66 0 -102 -41t-38 -100z" />
    <glyph glyph-name="i.ss02" horiz-adv-x="269" 
d="M135 714q27 0 46 -19t19 -46t-19 -46.5t-46 -19.5t-46.5 19.5t-19.5 46.5t19.5 46t46.5 19zM182 503v-503h-95v503h95z" />
    <glyph glyph-name="idieresis.ss02" horiz-adv-x="289" 
d="M31 701q28 0 45 -17.5t17 -45.5q0 -26 -17.5 -43.5t-44.5 -17.5q-28 0 -45.5 17.5t-17.5 43.5q0 28 17.5 45.5t45.5 17.5zM239 701q27 0 44.5 -17.5t17.5 -45.5q0 -26 -17.5 -43.5t-44.5 -17.5q-28 0 -45.5 17t-17.5 44q0 28 17 45.5t46 17.5zM180 503v-503h-95v503h95z
" />
    <glyph glyph-name="ij.ss02" horiz-adv-x="536" 
d="M135 714q27 0 46 -19t19 -46t-19 -46.5t-46 -19.5t-46.5 19.5t-19.5 46.5t19.5 46t46.5 19zM412 576q-28 0 -48.5 20t-20.5 49t20.5 49t48.5 20t48.5 -20t20.5 -49t-20.5 -49t-48.5 -20zM182 503v-503h-95v503h95zM460 503v-561q0 -84 -42.5 -125t-107.5 -41h-27v87h13
q69 0 69 77v563h95z" />
    <glyph glyph-name="iogonek.ss02" horiz-adv-x="269" 
d="M135 583q-27 0 -46.5 19.5t-19.5 46.5t19.5 46t46.5 19t46 -19t19 -46t-19 -46.5t-46 -19.5zM106 -90q6 -21 30 -24.5t57 11.5v-73q-40 -20 -85 -13t-66 45q-21 34 -5 75t64 69h-14v503h95v-503h6q-94 -45 -82 -90z" />
    <glyph glyph-name="j.ss02" horiz-adv-x="267" 
d="M143 576q-29 0 -49 20t-20 49t20 49t49 20t49 -20t20 -49t-20 -49t-49 -20zM191 503v-561q0 -84 -42.5 -125t-107.5 -41h-27v87h13q69 0 69 77v563h95z" />
    <glyph glyph-name="odieresis.ss02" 
d="M188 701q28 0 45 -17.5t17 -45.5q0 -26 -17 -43.5t-45 -17.5t-45.5 17.5t-17.5 43.5q0 28 17.5 45.5t45.5 17.5zM396 701q27 0 44.5 -17.5t17.5 -45.5q0 -26 -17.5 -43.5t-44.5 -17.5q-28 0 -45.5 17t-17.5 44q0 28 17.5 45.5t45.5 17.5zM292 517q104 0 171 -74t67 -191
t-67 -191.5t-171 -74.5t-171 74.5t-67 191.5t67 191t171 74zM292 430q-65 0 -103 -48t-38 -130q0 -83 38 -131t103 -48t103 48t38 131q0 82 -38 130t-103 48z" />
    <glyph glyph-name="udieresis.ss02" 
d="M182 701q28 0 45 -17.5t17 -45.5q0 -26 -17 -43.5t-45 -17.5t-45.5 17.5t-17.5 43.5q0 28 17.5 45.5t45.5 17.5zM390 701q27 0 44.5 -17.5t17.5 -45.5q0 -26 -17.5 -43.5t-44.5 -17.5q-28 0 -45.5 17t-17.5 44q0 28 17.5 45.5t45.5 17.5zM499 503v-503h-89v58
q-50 -72 -152 -72q-82 0 -133.5 50t-51.5 144v323h95v-300q0 -130 110 -130q63 0 94.5 43t31.5 118v269h95z" />
    <glyph glyph-name="wdieresis.ss02" horiz-adv-x="763" 
d="M278 577q-28 0 -45.5 17.5t-17.5 43.5q0 28 17.5 45.5t45.5 17.5t45 -17.5t17 -45.5q0 -26 -17 -43.5t-45 -17.5zM486 577q-28 0 -45.5 17t-17.5 44q0 28 17.5 45.5t45.5 17.5q27 0 44.5 -17.5t17.5 -45.5q0 -26 -17.5 -43.5t-44.5 -17.5zM659 503h94l-211 -503h-96
l-64 152l-64 -152h-96l-212 503h94l165 -391l65 153l-100 238h94l53 -126l54 126h94l-100 -239l64 -152z" />
    <glyph glyph-name="f_f_i.ss02" horiz-adv-x="833" 
d="M699 634q-27 0 -46.5 19.5t-19.5 46.5t19.5 46t46.5 19t46 -19t19 -46t-19 -46.5t-46 -19.5zM745 503v-503h-95v415h-106v1h-74v-416h-95v416h-65v-1h-116v-415h-95v415h-68v88h68v93q0 77 38 120t97 43h57v-88h-38q-59 0 -59 -79v-89h181v93q0 77 38 120t97 43h77v-86
h-58q-59 0 -59 -79v-91h275z" />
    <glyph glyph-name="fi.ss02" horiz-adv-x="558" 
d="M424 634q-27 0 -46.5 19.5t-19.5 46.5t19.5 46t46.5 19t46 -19t19 -46t-19 -46.5t-46 -19.5zM470 503v-503h-95v415h-181v-415h-95v415h-68v88h68v93q0 77 38 120t97 43h57v-88h-38q-59 0 -59 -79v-89h276z" />
    <glyph glyph-name="colon.ss02" horiz-adv-x="228" 
d="M114 379q-28 0 -48.5 20.5t-20.5 48.5t20.5 48.5t48.5 20.5t48.5 -20.5t20.5 -48.5t-20.5 -48.5t-48.5 -20.5zM114 -14q-28 0 -48.5 20t-20.5 49t20.5 49t48.5 20t48.5 -20t20.5 -49t-20.5 -49t-48.5 -20z" />
    <glyph glyph-name="comma.ss02" horiz-adv-x="238" 
d="M111 124q32 0 55.5 -22t23.5 -63q0 -57 -28.5 -102.5t-82.5 -62.5l-26 35q72 24 76 81q-8 -4 -18 -4q-29 0 -49 20t-20 49t20 49t49 20z" />
    <glyph glyph-name="ellipsis.ss02" horiz-adv-x="882" 
d="M197 -14q-29 0 -49 20t-20 49t20 49t49 20t49 -20t20 -49t-20 -49t-49 -20zM451 -14q-29 0 -49 20t-20 49t20 49t49 20t49 -20t20 -49t-20 -49t-49 -20zM705 -14q-29 0 -49 20t-20 49t20 49t49 20t49 -20t20 -49t-20 -49t-49 -20z" />
    <glyph glyph-name="exclam.ss02" horiz-adv-x="301" 
d="M201 692l-6 -478h-90l-5 478h101zM150 -14q-28 0 -48.5 20t-20.5 49t20.5 49t48.5 20t48.5 -20t20.5 -49t-20.5 -49t-48.5 -20z" />
    <glyph glyph-name="exclamdown.ss02" horiz-adv-x="301" 
d="M150 706q28 0 48.5 -20t20.5 -49t-20.5 -49t-48.5 -20t-48.5 20t-20.5 49t20.5 49t48.5 20zM201 0h-101l5 478h90z" />
    <glyph glyph-name="period.ss02" horiz-adv-x="234" 
d="M117 -14q-29 0 -49 20t-20 49t20 49t49 20t49 -20t20 -49t-20 -49t-49 -20z" />
    <glyph glyph-name="question.ss02" horiz-adv-x="399" 
d="M134 204q-33 51 -33 104q0 36 16.5 67t39.5 52.5t46 41.5t39.5 41.5t16.5 44.5q0 32 -22.5 51.5t-51.5 19.5q-40 0 -87 -40l-42 70q61 57 127 57q81 0 125 -43.5t44 -112.5q0 -35 -16.5 -66.5t-39.5 -53.5t-46 -42.5t-39.5 -43t-16.5 -45.5q0 -48 45 -102h-105zM187 -14
q-29 0 -49 20t-20 49t20 49t49 20t49 -20t20 -49t-20 -49t-49 -20z" />
    <glyph glyph-name="questiondown.ss02" horiz-adv-x="399" 
d="M218 493q28 0 48.5 -20.5t20.5 -48.5t-20.5 -48.5t-48.5 -20.5t-48.5 20.5t-20.5 48.5t20.5 48.5t48.5 20.5zM271 275q33 -51 33 -104q0 -36 -16.5 -67t-39.5 -52.5t-46 -41.5t-39.5 -41.5t-16.5 -44.5q0 -32 22.5 -51.5t51.5 -19.5q40 0 87 40l42 -70q-61 -57 -127 -57
q-81 0 -125 43.5t-44 112.5q0 35 16.5 66.5t39.5 53.5t46 42.5t39.5 43t16.5 45.5q0 48 -45 102h105z" />
    <glyph glyph-name="semicolon.ss02" horiz-adv-x="238" 
d="M120 380q-28 0 -48.5 20t-20.5 49t20.5 49t48.5 20t48.5 -20t20.5 -49t-20.5 -49t-48.5 -20zM114 124q32 0 55.5 -22t23.5 -63q0 -57 -28.5 -102.5t-82.5 -62.5l-26 35q72 24 76 81q-8 -4 -18 -4q-28 0 -48.5 20t-20.5 49t20.5 49t48.5 20z" />
    <glyph glyph-name="quotedblbase.ss02" horiz-adv-x="397" 
d="M91 124q32 0 55.5 -22t23.5 -63q0 -57 -28.5 -102.5t-82.5 -62.5l-26 35q72 24 76 81q-8 -4 -18 -4q-29 0 -49 20t-20 49t20 49t49 20zM294 124q32 0 55.5 -22t23.5 -63q0 -57 -28.5 -102.5t-82.5 -62.5l-26 35q72 24 76 81q-8 -4 -18 -4q-28 0 -48.5 20t-20.5 49
t20.5 49t48.5 20z" />
    <glyph glyph-name="quotedblleft.ss02" horiz-adv-x="397" 
d="M103 472q-32 0 -55.5 22t-23.5 63q0 57 28.5 102.5t82.5 62.5l26 -35q-72 -24 -76 -81q8 4 18 4q29 0 49 -20t20 -49t-20 -49t-49 -20zM306 472q-32 0 -55.5 22t-23.5 63q0 57 28.5 102.5t82.5 62.5l26 -35q-72 -24 -76 -81q8 4 18 4q28 0 48.5 -20t20.5 -49t-20.5 -49
t-48.5 -20z" />
    <glyph glyph-name="quotedblright.ss02" horiz-adv-x="397" 
d="M91 717q32 0 55.5 -22t23.5 -63q0 -57 -28.5 -102.5t-82.5 -62.5l-26 35q72 24 76 81q-8 -4 -18 -4q-29 0 -49 20.5t-20 48.5t20 48.5t49 20.5zM294 717q32 0 55.5 -22t23.5 -63q0 -57 -28.5 -102.5t-82.5 -62.5l-26 35q72 24 76 81q-8 -4 -18 -4q-28 0 -48.5 20.5
t-20.5 48.5t20.5 48.5t48.5 20.5z" />
    <glyph glyph-name="quoteleft.ss02" horiz-adv-x="194" 
d="M103 472q-32 0 -55.5 22t-23.5 63q0 57 28.5 102.5t82.5 62.5l26 -35q-72 -24 -76 -81q8 4 18 4q29 0 49 -20t20 -49t-20 -49t-49 -20z" />
    <glyph glyph-name="quoteright.ss02" horiz-adv-x="194" 
d="M91 717q32 0 55.5 -22t23.5 -63q0 -57 -28.5 -102.5t-82.5 -62.5l-26 35q72 24 76 81q-8 -4 -18 -4q-29 0 -49 20.5t-20 48.5t20 48.5t49 20.5z" />
    <glyph glyph-name="quotesinglbase.ss02" horiz-adv-x="214" 
d="M106 124q32 0 55.5 -22t23.5 -63q0 -57 -28.5 -102.5t-82.5 -62.5l-26 35q72 24 76 81q-8 -4 -18 -4q-28 0 -48.5 20t-20.5 49t20.5 49t48.5 20z" />
    <glyph glyph-name="dieresis.ss02" horiz-adv-x="491" 
d="M142 701q28 0 45 -17.5t17 -45.5q0 -26 -17 -43.5t-45 -17.5t-45.5 17.5t-17.5 43.5q0 28 17.5 45.5t45.5 17.5zM350 701q27 0 44.5 -17.5t17.5 -45.5q0 -26 -17.5 -43.5t-44.5 -17.5q-28 0 -45.5 17t-17.5 44q0 28 17.5 45.5t45.5 17.5z" />
    <glyph glyph-name="ydieresis2.ss02" horiz-adv-x="524" 
d="M165 577q-28 0 -45.5 17.5t-17.5 43.5q0 28 17.5 45.5t45.5 17.5t45 -17.5t17 -45.5q0 -26 -17.5 -43.5t-44.5 -17.5zM373 577q-28 0 -45.5 17t-17.5 44q0 28 17 45.5t46 17.5q27 0 44.5 -17.5t17.5 -45.5q0 -26 -17.5 -43.5t-44.5 -17.5zM418 503h97l-291 -725h-89
l87 223l-211 502h100l157 -384z" />
    <glyph glyph-name="adieresis2.ss02" horiz-adv-x="606" 
d="M195 704q28 0 45 -17.5t17 -45.5q0 -27 -17.5 -44t-44.5 -17q-28 0 -45.5 17.5t-17.5 43.5q0 28 17.5 45.5t45.5 17.5zM403 704q27 0 44.5 -17.5t17.5 -45.5q0 -26 -17.5 -43.5t-44.5 -17.5q-28 0 -45.5 17t-17.5 44q0 29 17 46t46 17zM280 -14q-97 0 -161.5 75
t-64.5 191t64.5 190.5t161.5 74.5q88 0 146 -61v47h95v-503h-90v52q-58 -66 -151 -66zM291 74q65 0 102.5 47.5t37.5 130.5t-37.5 130.5t-102.5 47.5t-102.5 -47.5t-37.5 -130.5t37.5 -130.5t102.5 -47.5z" />
    </font>
</defs>
</svg>
